<?xml version="1.0" encoding="UTF-8" standalone="no"?>
<!-- Created with Inkscape (http://www.inkscape.org/) -->

<svg
   width="30mm"
   height="30mm"
   viewBox="0 0 30 30"
   version="1.1"
   id="svg9260"
   inkscape:version="1.1 (c68e22c387, 2021-05-23)"
   sodipodi:docname="SchwarzerLaeuferSchwarzesFeld.svg"
   xmlns:inkscape="http://www.inkscape.org/namespaces/inkscape"
   xmlns:sodipodi="http://sodipodi.sourceforge.net/DTD/sodipodi-0.dtd"
   xmlns="http://www.w3.org/2000/svg"
   xmlns:svg="http://www.w3.org/2000/svg">
  <sodipodi:namedview
     id="namedview9262"
     pagecolor="#eeeeee"
     bordercolor="#666666"
     borderopacity="1.0"
     inkscape:pageshadow="2"
     inkscape:pageopacity="0"
     inkscape:pagecheckerboard="0"
     inkscape:document-units="mm"
     showgrid="false"
     width="30mm"
     borderlayer="true"
     showborder="true"
     inkscape:zoom="0.74118967"
     inkscape:cx="247.57496"
     inkscape:cy="238.13068"
     inkscape:window-width="1920"
     inkscape:window-height="1017"
     inkscape:window-x="-8"
     inkscape:window-y="1061"
     inkscape:window-maximized="1"
     inkscape:current-layer="layer7" />
  <defs
     id="defs9257" />
  <g
     inkscape:label="Ebene 1"
     inkscape:groupmode="layer"
     id="layer1"
     sodipodi:insensitive="true">
    <text
       xml:space="preserve"
       style="font-style:normal;font-weight:normal;font-size:198.688px;line-height:1.25;font-family:sans-serif;fill:#000000;fill-opacity:1;stroke:none;stroke-width:4.96721"
       x="-23.780478"
       y="111.77676"
       id="text11172"
       transform="scale(2.676286,0.37365214)"><tspan
         sodipodi:role="line"
         id="tspan11170"
         style="stroke-width:4.96721"
         x="-23.780478"
         y="111.77676">I</tspan></text>
  </g>
  <g
     inkscape:groupmode="layer"
     id="layer7"
     inkscape:label="Ebene 2">
    <path
       d="m 14.182392,1.3844508 c -1.711352,0.2358311 -2.858968,0.9862016 -2.999901,1.9831228 -0.08053,0.5466988 -0.02015,0.7289314 0.402668,1.1362754 l 0.483208,0.4823811 -0.66441,0.4395029 c -2.5569561,1.6615351 -3.0401628,4.770214 -1.087212,6.999887 0.704679,0.782529 0.684544,0.76109 0.32214,0.76109 -0.402673,0 -1.1274807,0.51454 -1.1274807,0.793249 0,0.128635 0.140938,0.332307 0.302005,0.460942 0.3020047,0.225112 0.2818697,0.246551 -0.201337,0.310868 -1.0469414,0.139355 -1.4697501,0.921884 -0.7248074,1.318509 0.3825387,0.203672 0.3825387,0.203672 -0.261736,0.267989 -2.4562925,0.24655 -1.9126868,1.993843 0.6040047,1.993843 0.8456114,0 0.9261444,0.02144 1.2080154,0.375185 0.140938,0.203672 0.28187,0.50382 0.28187,0.664614 0,0.482381 -0.8657397,1.339948 -1.9932211,1.940244 l -1.0268124,0.568138 v 1.168434 c 0,1.168435 0,1.179155 -0.5033367,1.243471 -0.8053407,0.107196 -1.5100141,0.632455 -1.5100141,1.125557 0,0.450223 0.4630667,1.061238 0.8053414,1.061238 0.120798,0 0.201331,0.03216 0.201331,0.07504 0,0.05359 -0.342269,0.08576 -0.7449367,0.08576 -0.7650774,0 -0.7650774,0 -0.8254764,0.482381 -0.04029,0.267988 -0.02015,0.879006 0.0604,1.372105 l 0.1409377,0.879006 h 9.8453053 9.865442 l -0.0604,-1.361388 -0.0604,-1.372104 h -0.644273 c -0.765078,0 -0.805347,-0.0536 -0.261741,-0.32159 0.442943,-0.21439 0.704679,-0.782527 0.503342,-1.114833 -0.221472,-0.385905 -1.087212,-0.846849 -1.711352,-0.921885 l -0.60401,-0.07504 V 23.102326 21.98749 L 21.00767,21.365754 c -1.308684,-0.686053 -1.751622,-1.243471 -1.57042,-2.004562 0.181202,-0.696772 0.704674,-0.964762 2.053621,-1.039799 1.449616,-0.08576 2.013357,-0.353746 2.013357,-0.943323 0,-0.503821 -0.644274,-0.932604 -1.550284,-1.02908 -0.563741,-0.07504 -0.58387,-0.08576 -0.241601,-0.278709 0.704673,-0.418064 0.241601,-1.179154 -0.825476,-1.318509 -0.463073,-0.06432 -0.463073,-0.07504 -0.181202,-0.385905 0.362404,-0.375185 0.221466,-0.686053 -0.463073,-1.02908 l -0.483207,-0.23583 0.402674,-0.439503 c 0.724808,-0.739651 1.087212,-1.79017 1.067077,-3.0122027 0,-0.6217356 -0.100669,-1.2863499 -0.181202,-1.4793023 L 20.886867,7.8161997 19.19565,8.8452796 17.504427,9.8743594 16.880287,9.5527721 16.276283,9.2311845 16.678951,8.9846341 c 0.221471,-0.1393545 1.107347,-0.664614 1.952958,-1.1684344 0.845605,-0.5145398 1.550284,-0.9969209 1.550284,-1.0719582 0,-0.085757 -0.32214,-0.3966242 -0.704679,-0.6860529 C 18.28964,5.1363043 18.269505,5.1041456 18.792976,4.7289604 19.336582,4.3323358 19.537919,3.4211716 19.175515,2.8530335 18.53124,1.8025147 16.195749,1.1164614 14.182392,1.3844508 Z"
       id="path12-1"
       style="fill:#ffffff;stroke-width:0.0146909" />
    <path
       d="m 14.388152,1.6707044 c -1.473911,0.2312109 -2.462299,0.9668845 -2.583678,1.9442765 -0.06937,0.5359911 -0.01735,0.7146536 0.3468,1.1140165 l 0.41616,0.4729323 -0.572222,0.4308938 c -2.2021947,1.6289897 -2.6183594,4.6767755 -0.936366,6.8627705 0.606904,0.767203 0.589566,0.746184 0.277442,0.746184 -0.346801,0 -0.971049,0.504459 -0.971049,0.777711 0,0.126116 0.12138,0.325797 0.260103,0.451914 0.260104,0.220699 0.24276,0.241722 -0.1734,0.304775 -0.9016897,0.136624 -1.2658284,0.903827 -0.6242477,1.292684 0.3294617,0.199681 0.3294617,0.199681 -0.225421,0.262738 -2.1154968,0.241722 -1.6473111,1.954786 0.5202067,1.954786 0.728283,0 0.797642,0.021 1.040407,0.367837 0.12138,0.199683 0.24276,0.493949 0.24276,0.651596 0,0.472934 -0.745622,1.313699 -1.7166707,1.902234 l -0.8843454,0.557013 v 1.145545 c 0,1.145545 0,1.156059 -0.4335027,1.219116 -0.6936077,0.105091 -1.3005114,0.620068 -1.3005114,1.103506 0,0.441402 0.3988217,1.040451 0.6936017,1.040451 0.104041,0 0.1734057,0.03154 0.1734057,0.07357 0,0.05255 -0.2947857,0.08408 -0.6415864,0.08408 -0.6589237,0 -0.6589237,0 -0.7109447,0.472931 -0.0347,0.262741 -0.01735,0.861793 0.05199,1.345228 l 0.12138,0.861787 h 8.4793219 8.496668 l -0.05199,-1.334715 -0.05199,-1.345231 H 23.07559 c -0.658925,0 -0.693607,-0.05255 -0.225421,-0.315287 0.381483,-0.210191 0.606904,-0.767203 0.433504,-1.092997 -0.190745,-0.378345 -0.936372,-0.830261 -1.473912,-0.903826 l -0.520206,-0.07357 V 22.963161 21.87016 l -1.02307,-0.609557 c -1.127105,-0.672614 -1.508588,-1.219113 -1.352526,-1.965295 0.156062,-0.683124 0.606904,-0.945862 1.768692,-1.019433 1.24849,-0.08408 1.734014,-0.346812 1.734014,-0.924842 0,-0.493952 -0.554883,-0.914336 -1.335193,-1.008922 -0.485524,-0.07357 -0.502863,-0.08408 -0.208077,-0.273249 0.606904,-0.409875 0.208077,-1.15606 -0.710945,-1.292684 -0.398827,-0.06305 -0.398827,-0.07357 -0.156062,-0.378346 0.312118,-0.367835 0.190738,-0.672614 -0.398827,-1.008919 l -0.41616,-0.231214 0.346801,-0.430891 c 0.624248,-0.725163 0.936366,-1.755103 0.919028,-2.953198 0,-0.6095566 -0.0867,-1.2611512 -0.156062,-1.4503246 L 20.162447,7.9764663 18.705874,8.985388 17.2493,9.9943096 16.711755,9.6790235 16.191554,9.363734 16.538355,9.1220156 c 0.190744,-0.1366276 0.95371,-0.651598 1.681994,-1.1455493 0.728284,-0.5044595 1.335188,-0.9773914 1.335188,-1.0509604 0,-0.084076 -0.277442,-0.388856 -0.606904,-0.6726155 C 17.925569,5.3490643 17.908225,5.3175368 18.359067,4.949701 18.827253,4.5608453 19.000654,3.6675293 18.688535,3.1105215 18.133646,2.080578 16.122195,1.4079655 14.388181,1.6707044 Z"
       id="path12-48-8"
       style="fill:#000000;stroke-width:0.0134996" />
  </g>
</svg>
