<?xml version="1.0" encoding="UTF-8" standalone="no"?>
<!-- Created with Inkscape (http://www.inkscape.org/) -->

<svg
   width="30mm"
   height="30mm"
   viewBox="0 0 30 30"
   version="1.1"
   id="svg9260"
   inkscape:version="1.1 (c68e22c387, 2021-05-23)"
   sodipodi:docname="SchwarzerKoenigWeissesFeld.svg"
   xmlns:inkscape="http://www.inkscape.org/namespaces/inkscape"
   xmlns:sodipodi="http://sodipodi.sourceforge.net/DTD/sodipodi-0.dtd"
   xmlns="http://www.w3.org/2000/svg"
   xmlns:svg="http://www.w3.org/2000/svg">
  <sodipodi:namedview
     id="namedview9262"
     pagecolor="#eeeeee"
     bordercolor="#666666"
     borderopacity="1.0"
     inkscape:pageshadow="2"
     inkscape:pageopacity="0"
     inkscape:pagecheckerboard="0"
     inkscape:document-units="mm"
     showgrid="false"
     width="30mm"
     borderlayer="true"
     showborder="true"
     inkscape:zoom="0.74118967"
     inkscape:cx="247.57496"
     inkscape:cy="238.13068"
     inkscape:window-width="1920"
     inkscape:window-height="1017"
     inkscape:window-x="-8"
     inkscape:window-y="1061"
     inkscape:window-maximized="1"
     inkscape:current-layer="layer7" />
  <defs
     id="defs9257" />
  <g
     inkscape:label="Ebene 1"
     inkscape:groupmode="layer"
     id="layer1"
     sodipodi:insensitive="true">
    <text
       xml:space="preserve"
       style="font-style:normal;font-weight:normal;font-size:198.688px;line-height:1.25;font-family:sans-serif;fill:#ffffff;fill-opacity:1;stroke:none;stroke-width:4.96721"
       x="-23.780478"
       y="111.77676"
       id="text11172"
       transform="scale(2.676286,0.37365214)"><tspan
         sodipodi:role="line"
         id="tspan11170"
         style="fill:#ffffff;stroke-width:4.96721"
         x="-23.780478"
         y="111.77676">I</tspan></text>
  </g>
  <g
     inkscape:groupmode="layer"
     id="layer7"
     inkscape:label="Ebene 2">
    <path
       d="M 13.876685,0.92177163 C 13.749447,0.94852128 13.692893,1.1535856 13.692893,1.4923929 v 0.5260413 h -0.84825 -0.848255 v 0.8380993 c 0,0.9361756 0,0.9450921 1.074454,0.9450921 h 0.622051 v 0.4012178 0.4012177 h -2.671997 c -1.4844387,0 -2.7144062,0.026746 -2.7426827,0.06241 -0.042415,0.04458 0.5513667,1.4265532 1.300655,3.076002 1.2865177,2.8441909 1.3713437,3.0135919 1.6823697,3.0135919 0.26861,0 0.311025,0.03566 0.240337,0.187236 -0.1131,0.213981 0.169649,0.70436 0.409986,0.70436 0.08483,0 -0.09896,0.08024 -0.424124,0.169404 -0.819977,0.231813 -1.032042,0.686528 -0.494813,1.052082 0.282748,0.187233 0.282748,0.187233 -0.16965,0.24073 -1.1027287,0.142655 -1.4703037,0.891595 -0.678605,1.399805 0.339303,0.205066 0.537229,0.25856 1.046181,0.25856 0.537224,0 0.650327,0.03567 0.805838,0.240734 0.296888,0.410131 0.339303,2.157659 0.08483,3.459386 -0.42413,2.095249 -1.15928,4.021094 -1.724781,4.573882 -0.169649,0.169403 -0.212065,0.410135 -0.169649,1.176907 l 0.04241,0.962928 -0.4524007,0.09808 c -1.04618,0.240732 -1.3854786,1.06992 -0.6644667,1.604881 l 0.3675797,0.276396 h -0.508948 c -0.2686139,0 -0.5372284,0.04458 -0.5796396,0.08916 -0.042415,0.05349 -0.042415,0.570622 0.014147,1.15908 l 0.098961,1.069918 h 6.9698113 6.955676 l -0.07069,-1.052088 c -0.02825,-0.570622 -0.09896,-1.096666 -0.127238,-1.167996 -0.04242,-0.08024 -0.212064,-0.106991 -0.480679,-0.08024 -0.240338,0.02675 -0.424125,0.0089 -0.424125,-0.03566 0,-0.03566 0.05655,-0.07133 0.141377,-0.07133 0.07069,0 0.240338,-0.124824 0.367574,-0.285312 0.480676,-0.579539 -0.113098,-1.408729 -1.088591,-1.542468 l -0.409991,-0.06241 v -0.954011 c 0,-0.847017 -0.02829,-0.980757 -0.282748,-1.12341 -1.286518,-0.731109 -2.191322,-6.143091 -1.314791,-7.801458 l 0.254476,-0.490378 0.834112,-0.04458 c 0.678605,-0.03566 0.876531,-0.08916 1.15928,-0.294225 0.57964,-0.427967 0.367575,-1.016419 -0.438264,-1.266066 -0.254476,-0.07133 -0.537224,-0.133738 -0.636189,-0.133738 -0.09896,0 -0.08483,-0.04458 0.05655,-0.133739 0.537228,-0.347722 0.339302,-0.873763 -0.424126,-1.114494 -0.395852,-0.124823 -0.40999,-0.15157 -0.240337,-0.356638 0.09896,-0.124824 0.141372,-0.32989 0.09896,-0.472547 -0.05655,-0.196151 -0.02825,-0.24073 0.183788,-0.24073 0.226203,0 0.46654,-0.436882 1.639955,-3.013592 0.749293,-1.6494488 1.371344,-3.0314216 1.371344,-3.076002 0,-0.035663 -1.201691,-0.06241 -2.686135,-0.06241 H 17.227291 V 4.2028434 3.8016256 h 0.692739 c 0.409991,0 0.749293,-0.04458 0.848255,-0.1248235 0.113098,-0.080244 0.155514,-0.4012178 0.127238,-0.8737655 L 18.853113,2.0630145 18.04727,2.0362675 17.227293,2.0095175 V 1.4923929 c 0,-0.3923009 -0.05655,-0.53495754 -0.226199,-0.57953783 -0.268614,-0.0624101 -2.869923,-0.0624101 -3.124399,0.008922 z"
       id="path4-9-6-9"
       style="fill:#000000;stroke-width:0.0112272" />
  </g>
</svg>
