<?xml version="1.0" encoding="UTF-8" standalone="no"?>
<!-- Created with Inkscape (http://www.inkscape.org/) -->

<svg
   width="30mm"
   height="30mm"
   viewBox="0 0 30 30"
   version="1.1"
   id="svg9260"
   inkscape:version="1.1 (c68e22c387, 2021-05-23)"
   sodipodi:docname="SchwarzerSpringerSchwarzesFeld.svg"
   xmlns:inkscape="http://www.inkscape.org/namespaces/inkscape"
   xmlns:sodipodi="http://sodipodi.sourceforge.net/DTD/sodipodi-0.dtd"
   xmlns="http://www.w3.org/2000/svg"
   xmlns:svg="http://www.w3.org/2000/svg">
  <sodipodi:namedview
     id="namedview9262"
     pagecolor="#eeeeee"
     bordercolor="#666666"
     borderopacity="1.0"
     inkscape:pageshadow="2"
     inkscape:pageopacity="0"
     inkscape:pagecheckerboard="0"
     inkscape:document-units="mm"
     showgrid="false"
     width="30mm"
     borderlayer="true"
     showborder="true"
     inkscape:zoom="0.74118967"
     inkscape:cx="247.57496"
     inkscape:cy="238.13068"
     inkscape:window-width="1920"
     inkscape:window-height="1017"
     inkscape:window-x="-8"
     inkscape:window-y="1061"
     inkscape:window-maximized="1"
     inkscape:current-layer="layer7" />
  <defs
     id="defs9257" />
  <g
     inkscape:label="Ebene 1"
     inkscape:groupmode="layer"
     id="layer1"
     sodipodi:insensitive="true">
    <text
       xml:space="preserve"
       style="font-style:normal;font-weight:normal;font-size:198.688px;line-height:1.25;font-family:sans-serif;fill:#000000;fill-opacity:1;stroke:none;stroke-width:4.96721"
       x="-23.780478"
       y="111.77676"
       id="text11172"
       transform="scale(2.676286,0.37365214)"><tspan
         sodipodi:role="line"
         id="tspan11170"
         style="stroke-width:4.96721"
         x="-23.780478"
         y="111.77676">I</tspan></text>
  </g>
  <g
     inkscape:groupmode="layer"
     id="layer7"
     inkscape:label="Ebene 2">
    <path
       d="M 7.8152045,1.4605618 C 6.8311668,2.2184266 5.9518144,3.7493137 5.5749497,5.2802009 l -0.31405,1.4247857 1.0468464,3.1072459 C 8.2339392,15.526533 8.8411129,18.254847 8.8411129,21.240834 v 1.394472 L 8.1083222,22.83235 c -1.0887234,0.287989 -1.5702731,0.818494 -1.5702731,1.758247 0,0.712393 0.08375,0.848808 0.6281117,1.197426 l 0.6281057,0.378932 -0.7746677,0.04547 -0.7955994,0.04547 v 1.51573 1.51573 h 8.7935036 8.793512 v -1.51573 -1.51573 l -0.7956,-0.04547 -0.795606,-0.04547 0.649044,-0.439561 c 0.523427,-0.363775 0.628106,-0.530506 0.628106,-1.167112 0,-0.924595 -0.334988,-1.28837 -1.674953,-1.697617 -0.921223,-0.287989 -1.046847,-0.378933 -1.046847,-0.773022 0,-0.348618 0.188432,-0.530506 0.879353,-0.863966 0.460612,-0.22736 1.046847,-0.591135 1.256218,-0.803337 0.879347,-0.863966 0.816538,-2.985987 -0.125624,-4.471402 -0.293117,-0.469876 -1.549335,-1.621831 -3.328973,-3.03146 -1.947133,-1.546044 -2.868356,-2.394853 -2.868356,-2.622212 0,-0.5305057 0.586229,-1.3489997 1.319026,-1.788561 0.690915,-0.4244044 0.565297,-0.409247 3.95708,-0.1212587 0.858414,0.075786 1.046847,0.045472 1.528397,-0.3031457 0.669976,-0.4850335 0.669976,-1.0458535 0.02095,-1.4247857 -0.586235,-0.3183035 -0.502488,-0.5001909 0.460612,-0.8488088 0.460611,-0.1667304 0.669982,-0.3637752 0.669982,-0.6062918 0,-0.3940901 -0.64905,-1.0761684 -1.256218,-1.3035276 C 23.078236,3.8099428 21.298597,3.5825832 19.372397,3.370381 14.284724,2.8398758 12.5679,2.5822019 11.939788,2.233584 11.625738,2.0668536 11.290744,1.9304379 11.186059,1.9304379 c -0.104685,0 -0.607167,-0.1970448 -1.109656,-0.4547187 C 8.9248719,0.91489915 8.5270689,0.91489915 7.8152165,1.4605612 Z"
       id="path16-55"
       style="fill:#ffffff;stroke-width:0.0178143" />
    <path
       d="M 8.6302999,1.5687297 C 7.7863845,2.3145449 7.0322398,3.8210825 6.7090391,5.3276293 l -0.269337,1.402133 0.8977867,3.0578359 C 8.9894076,15.411036 9.5101273,18.095967 9.5101273,21.034471 v 1.372299 l -0.6284434,0.193911 c -0.9336987,0.283408 -1.3466824,0.805478 -1.3466824,1.730287 0,0.701064 0.07182,0.835312 0.5386727,1.178388 l 0.5386727,0.372906 -0.6643617,0.04475 -0.6823204,0.04476 v 1.49163 1.491625 h 7.5413932 7.541401 v -1.491625 -1.49163 l -0.682315,-0.04476 -0.682315,-0.04475 0.556627,-0.432574 c 0.44889,-0.357988 0.538667,-0.52207 0.538667,-1.148549 0,-0.909897 -0.28729,-1.26789 -1.43646,-1.670628 -0.790045,-0.283404 -0.897787,-0.372906 -0.897787,-0.760728 0,-0.343076 0.161607,-0.52207 0.754145,-0.850229 0.395026,-0.22374 0.897787,-0.581733 1.077346,-0.790561 0.754133,-0.850229 0.700269,-2.938509 -0.107741,-4.4003 -0.251378,-0.462407 -1.328712,-1.596044 -2.854955,-2.98326 -1.669885,-1.521459 -2.45993,-2.356771 -2.45993,-2.580516 0,-0.5220705 0.502762,-1.3275484 1.131206,-1.7601167 0.592544,-0.4176558 0.484808,-0.4027386 3.393634,-0.119336 0.73618,0.074585 0.897786,0.044758 1.310765,-0.2983198 0.574585,-0.4773242 0.574585,-1.0292276 0.01798,-1.402133 C 21.504567,6.3717698 21.576391,6.1927752 22.402348,5.8497 c 0.395031,-0.1640778 0.574585,-0.3579887 0.574585,-0.5966508 0,-0.3878219 -0.55662,-1.0590561 -1.077334,-1.2828014 C 21.720039,3.8807505 20.193802,3.6570103 18.541877,3.4481779 14.178644,2.9261124 12.706272,2.6725335 12.167593,2.3294617 11.898262,2.1653805 11.610972,2.0311324 11.521196,2.0311324 c -0.08978,0 -0.52072,-0.1939113 -0.951658,-0.4474855 C 9.5819753,1.0317431 9.2408206,1.0317431 8.6303239,1.5686949 Z"
       id="path16-69"
       style="stroke-width:0.0163656" />
  </g>
</svg>
