<?xml version="1.0" encoding="UTF-8" standalone="no"?>
<!-- Created with Inkscape (http://www.inkscape.org/) -->

<svg
   width="30mm"
   height="30mm"
   viewBox="0 0 30 30"
   version="1.1"
   id="svg9260"
   inkscape:version="1.1 (c68e22c387, 2021-05-23)"
   sodipodi:docname="SchwarzerBauerSchwarzesFeld.svg"
   xmlns:inkscape="http://www.inkscape.org/namespaces/inkscape"
   xmlns:sodipodi="http://sodipodi.sourceforge.net/DTD/sodipodi-0.dtd"
   xmlns="http://www.w3.org/2000/svg"
   xmlns:svg="http://www.w3.org/2000/svg">
  <sodipodi:namedview
     id="namedview9262"
     pagecolor="#eeeeee"
     bordercolor="#666666"
     borderopacity="1.0"
     inkscape:pageshadow="2"
     inkscape:pageopacity="0"
     inkscape:pagecheckerboard="0"
     inkscape:document-units="mm"
     showgrid="false"
     width="30mm"
     borderlayer="true"
     showborder="true"
     inkscape:zoom="0.74118967"
     inkscape:cx="247.57496"
     inkscape:cy="238.13068"
     inkscape:window-width="1920"
     inkscape:window-height="1017"
     inkscape:window-x="-8"
     inkscape:window-y="1061"
     inkscape:window-maximized="1"
     inkscape:current-layer="layer7" />
  <defs
     id="defs9257" />
  <g
     inkscape:label="Ebene 1"
     inkscape:groupmode="layer"
     id="layer1"
     sodipodi:insensitive="true">
    <text
       xml:space="preserve"
       style="font-style:normal;font-weight:normal;font-size:198.688px;line-height:1.25;font-family:sans-serif;fill:#000000;fill-opacity:1;stroke:none;stroke-width:4.96721"
       x="-23.780478"
       y="111.77676"
       id="text11172"
       transform="scale(2.676286,0.37365214)"><tspan
         sodipodi:role="line"
         id="tspan11170"
         style="stroke-width:4.96721"
         x="-23.780478"
         y="111.77676">I</tspan></text>
  </g>
  <g
     inkscape:groupmode="layer"
     id="layer7"
     inkscape:label="Ebene 2">
    <path
       d="m 14.14761,6.5116826 c -3.555084,0.7209966 -4.9573644,4.5062354 -2.449055,6.5872984 0.217252,0.180246 0.375254,0.344111 0.335756,0.360498 -1.540538,0.639064 -2.014545,1.196201 -2.2120507,2.490718 -0.05925,0.507975 -0.079,0.999567 -0.01976,1.081495 0.079,0.08193 0.5727607,0.147477 1.1257747,0.147477 h 1.007275 l -0.138256,0.934022 c -0.177754,1.376449 -1.283777,3.129783 -2.8243144,4.489849 -1.4022811,1.228971 -1.6985398,1.917198 -1.2640301,2.965923 0.1975057,0.44243 0.1777537,0.573519 -0.079,0.720996 -0.256756,0.163864 -0.2962587,0.475205 -0.256756,1.5567 l 0.05925,1.376449 7.4656735,0.04916 7.445929,0.03275 v -1.45838 c 0,-0.884861 -0.079,-1.491155 -0.217258,-1.523925 -0.13825,-0.03279 -0.13825,-0.196639 0,-0.50798 0.118505,-0.262179 0.217258,-0.802929 0.217258,-1.212584 0,-0.688227 -0.09875,-0.819316 -1.244279,-1.818879 -2.13305,-1.868041 -2.686064,-2.769289 -2.765066,-4.588168 l -0.05926,-1.015955 H 19.51972 20.764 v -0.868473 c -0.01976,-1.409223 -0.987519,-2.736514 -2.014546,-2.736514 -0.474013,0 -0.454261,-0.08193 0.217258,-0.786542 2.034298,-2.179379 0.790019,-5.3910979 -2.389805,-6.1776392 -1.086276,-0.2621835 -1.50104,-0.2785709 -2.429309,-0.098319 z"
       id="path24-4"
       style="fill:#ffffff;stroke-width:0.0179899" />
    <path
       d="m 14.287551,6.8727429 c -2.938665,0.6846546 -4.097807,4.2790981 -2.024415,6.2552681 0.179584,0.171162 0.310193,0.326767 0.277542,0.342328 -1.273425,0.606856 -1.665245,1.135915 -1.828505,2.365179 -0.04899,0.482377 -0.0653,0.949188 -0.01635,1.026987 0.0653,0.0778 0.473453,0.140044 0.930576,0.140044 h 0.832622 l -0.114277,0.886942 c -0.146934,1.307072 -1.06119,2.972027 -2.33461,4.263542 -1.1591401,1.167027 -1.4040271,1.82057 -1.0448574,2.816431 0.163259,0.42013 0.146934,0.544609 -0.06531,0.684654 -0.212236,0.155606 -0.244887,0.451251 -0.212236,1.478238 l 0.04899,1.307067 6.1711994,0.04668 6.154874,0.03112 v -1.38487 c 0,-0.840264 -0.0653,-1.416 -0.179585,-1.447116 -0.114278,-0.03117 -0.114278,-0.186727 0,-0.482377 0.09796,-0.248964 0.179585,-0.762457 0.179585,-1.151466 0,-0.653538 -0.08163,-0.778018 -1.028534,-1.727197 -1.763198,-1.773888 -2.220326,-2.629709 -2.285627,-4.356911 l -0.04899,-0.964744 h 1.028534 1.028533 v -0.824704 c -0.01635,-1.338188 -0.816298,-2.598583 -1.665246,-2.598583 -0.391821,0 -0.375495,-0.0778 0.179585,-0.746897 1.681571,-2.069529 0.653038,-5.1193623 -1.975434,-5.8662591 -0.89793,-0.2489733 -1.240769,-0.2645339 -2.00809,-0.093363 z"
       id="path24-8"
       style="stroke-width:0.0159386" />
  </g>
</svg>
