<?xml version="1.0" encoding="UTF-8" standalone="no"?>
<!-- Created with Inkscape (http://www.inkscape.org/) -->

<svg
   width="30mm"
   height="30mm"
   viewBox="0 0 30 30"
   version="1.1"
   id="svg9260"
   inkscape:version="1.1 (c68e22c387, 2021-05-23)"
   sodipodi:docname="SchwarzerLaeuferWeissesFeld.svg"
   xmlns:inkscape="http://www.inkscape.org/namespaces/inkscape"
   xmlns:sodipodi="http://sodipodi.sourceforge.net/DTD/sodipodi-0.dtd"
   xmlns="http://www.w3.org/2000/svg"
   xmlns:svg="http://www.w3.org/2000/svg">
  <sodipodi:namedview
     id="namedview9262"
     pagecolor="#eeeeee"
     bordercolor="#666666"
     borderopacity="1.0"
     inkscape:pageshadow="2"
     inkscape:pageopacity="0"
     inkscape:pagecheckerboard="0"
     inkscape:document-units="mm"
     showgrid="false"
     width="30mm"
     borderlayer="true"
     showborder="true"
     inkscape:zoom="0.74118967"
     inkscape:cx="247.57496"
     inkscape:cy="238.13068"
     inkscape:window-width="1920"
     inkscape:window-height="1017"
     inkscape:window-x="-8"
     inkscape:window-y="1061"
     inkscape:window-maximized="1"
     inkscape:current-layer="layer7" />
  <defs
     id="defs9257" />
  <g
     inkscape:label="Ebene 1"
     inkscape:groupmode="layer"
     id="layer1"
     sodipodi:insensitive="true">
    <text
       xml:space="preserve"
       style="font-style:normal;font-weight:normal;font-size:198.688px;line-height:1.25;font-family:sans-serif;fill:#ffffff;fill-opacity:1;stroke:none;stroke-width:4.96721"
       x="-23.780478"
       y="111.77676"
       id="text11172"
       transform="scale(2.676286,0.37365214)"><tspan
         sodipodi:role="line"
         id="tspan11170"
         style="fill:#ffffff;stroke-width:4.96721"
         x="-23.780478"
         y="111.77676">I</tspan></text>
  </g>
  <g
     inkscape:groupmode="layer"
     id="layer7"
     inkscape:label="Ebene 2">
    <path
       d="M 14.312311,1.0282309 C 12.815504,1.2671138 11.811764,2.0271946 11.6885,3.0370165 11.61806,3.5907899 11.67088,3.7753808 12.040687,4.1879961 l 0.42263,0.4886233 -0.581115,0.4451903 c -2.2364077,1.6830365 -2.6590324,4.8319436 -0.950913,7.0904693 0.616331,0.792656 0.598725,0.77094 0.281749,0.77094 -0.352187,0 -0.986129,0.521198 -0.986129,0.803514 0,0.1303 0.123264,0.336607 0.264144,0.466907 0.264139,0.228024 0.246529,0.24974 -0.176096,0.314891 -0.9156964,0.141157 -1.2854944,0.933813 -0.6339417,1.33557 0.3345817,0.206307 0.3345817,0.206307 -0.2289227,0.271458 -2.1483588,0.24974 -1.6729021,2.019643 0.5282827,2.019643 0.7396007,0 0.8100387,0.02172 1.0565717,0.380041 0.123265,0.206308 0.246534,0.510341 0.246534,0.673214 0,0.488623 -0.757212,1.357289 -1.7433407,1.965353 l -0.8980854,0.575489 v 1.183555 c 0,1.183555 0,1.194414 -0.4402407,1.259562 -0.7043787,0.108583 -1.3207104,0.640639 -1.3207104,1.140122 0,0.456049 0.40502,1.074971 0.7043797,1.074971 0.105659,0 0.176096,0.03258 0.176096,0.07601 0,0.05429 -0.29936,0.08687 -0.6515527,0.08687 -0.6691577,0 -0.6691577,0 -0.7219897,0.488623 -0.03519,0.271456 -0.01762,0.890382 0.05283,1.389862 l 0.123264,0.890381 h 8.6110479 8.628656 l -0.05283,-1.379005 -0.05283,-1.389861 h -0.563504 c -0.669159,0 -0.70438,-0.05429 -0.228923,-0.32575 0.387408,-0.217165 0.616331,-0.792655 0.44024,-1.129261 -0.193707,-0.390899 -0.950913,-0.857808 -1.496812,-0.933815 l -0.528283,-0.07601 v -1.118405 -1.129263 l -1.038962,-0.629781 c -1.144615,-0.694932 -1.532028,-1.259562 -1.373543,-2.030501 0.158486,-0.705791 0.616337,-0.977247 1.796173,-1.053255 1.267884,-0.08687 1.760951,-0.358325 1.760951,-0.955532 0,-0.510339 -0.563504,-0.944671 -1.355932,-1.042396 -0.493067,-0.07601 -0.510678,-0.08687 -0.211317,-0.282316 0.616336,-0.423473 0.211317,-1.194413 -0.72199,-1.33557 -0.405014,-0.06515 -0.405014,-0.07601 -0.158486,-0.390899 0.316976,-0.38004 0.193707,-0.694931 -0.405014,-1.042397 l -0.42263,-0.238883 0.352188,-0.44519 c 0.633942,-0.749223 0.950918,-1.813336 0.933307,-3.051182 0,-0.6297813 -0.08805,-1.3029961 -0.158485,-1.4984455 L 20.176276,7.5432106 18.697079,8.5856073 17.217883,9.6280041 16.671989,9.3022553 16.1437,8.9765061 16.495892,8.7267652 c 0.193702,-0.1411579 0.968524,-0.6732145 1.70812,-1.1835546 0.739601,-0.5211983 1.355932,-1.0098217 1.355932,-1.08583 0,-0.086867 -0.28175,-0.4017568 -0.616331,-0.6949309 C 17.904652,4.8286357 17.887041,4.7960609 18.344892,4.4160205 18.820348,4.0142634 18.99644,3.0913081 18.679469,2.515818 18.115964,1.4517048 16.073263,0.75677364 14.312311,1.0282309 Z"
       id="path12-4"
       style="stroke-width:0.0138278" />
  </g>
</svg>
