<?xml version="1.0" encoding="UTF-8" standalone="no"?>
<!-- Created with Inkscape (http://www.inkscape.org/) -->

<svg
   width="30mm"
   height="30mm"
   viewBox="0 0 30 30"
   version="1.1"
   id="svg9260"
   inkscape:version="1.1 (c68e22c387, 2021-05-23)"
   sodipodi:docname="SchwarzerTurmSchwarzesFeld.svg"
   xmlns:inkscape="http://www.inkscape.org/namespaces/inkscape"
   xmlns:sodipodi="http://sodipodi.sourceforge.net/DTD/sodipodi-0.dtd"
   xmlns="http://www.w3.org/2000/svg"
   xmlns:svg="http://www.w3.org/2000/svg">
  <sodipodi:namedview
     id="namedview9262"
     pagecolor="#eeeeee"
     bordercolor="#666666"
     borderopacity="1.0"
     inkscape:pageshadow="2"
     inkscape:pageopacity="0"
     inkscape:pagecheckerboard="0"
     inkscape:document-units="mm"
     showgrid="false"
     width="30mm"
     borderlayer="true"
     showborder="true"
     inkscape:zoom="0.74118967"
     inkscape:cx="247.57496"
     inkscape:cy="238.13068"
     inkscape:window-width="1920"
     inkscape:window-height="1017"
     inkscape:window-x="-8"
     inkscape:window-y="1061"
     inkscape:window-maximized="1"
     inkscape:current-layer="layer7" />
  <defs
     id="defs9257" />
  <g
     inkscape:label="Ebene 1"
     inkscape:groupmode="layer"
     id="layer1"
     sodipodi:insensitive="true">
    <text
       xml:space="preserve"
       style="font-style:normal;font-weight:normal;font-size:198.688px;line-height:1.25;font-family:sans-serif;fill:#000000;fill-opacity:1;stroke:none;stroke-width:4.96721"
       x="-23.780478"
       y="111.77676"
       id="text11172"
       transform="scale(2.676286,0.37365214)"><tspan
         sodipodi:role="line"
         id="tspan11170"
         style="stroke-width:4.96721"
         x="-23.780478"
         y="111.77676">I</tspan></text>
  </g>
  <g
     inkscape:groupmode="layer"
     id="layer7"
     inkscape:label="Ebene 2">
    <path
       d="m 9.0604046,1.6492805 c -0.09351,0.044409 -0.1636547,1.3915329 -0.1636547,2.9755116 0,2.7090475 0.02339,2.8718884 0.4441967,2.9459066 0.4441977,0.074018 0.4441977,0.074018 0,0.5329277 -0.8883877,0.9326235 -0.350683,2.2945476 1.0520434,2.7238526 0.677986,0.192445 0.7715,0.281268 0.584472,0.503318 -0.327303,0.3997 -0.257169,1.036251 0.187028,1.347124 0.350684,0.236859 0.350684,0.399696 0.09352,1.49516 -0.818255,3.375208 -1.9404384,5.995437 -3.5068123,8.127148 -0.8416346,1.139873 -0.8883884,1.643192 -0.2571625,2.294551 l 0.444191,0.47371 -0.7481139,0.04441 -0.7481204,0.04441 v 1.628392 1.628388 h 9.4683891 9.468389 v -1.628388 c 0,-1.583983 -0.02339,-1.628392 -0.537712,-1.672801 -0.537711,-0.04441 -0.537711,-0.05921 -0.140274,-0.44411 0.607845,-0.577337 0.561092,-1.539565 -0.09352,-2.057692 -1.542994,-1.213888 -4.488715,-7.076097 -4.488715,-8.956144 0,-0.281268 0.210408,-0.754982 0.444191,-1.051055 0.350683,-0.444105 0.397443,-0.66616 0.233788,-1.036247 -0.257162,-0.592141 -0.280542,-0.547732 0.163655,-0.547732 0.210409,0 0.72474,-0.222054 1.168931,-0.503318 0.701367,-0.44411 0.794881,-0.5921419 0.794881,-1.3027149 0,-0.473714 -0.140274,-0.917819 -0.350683,-1.0954602 -0.467571,-0.3848955 -0.444198,-0.473714 0.187028,-0.5329277 0.514338,-0.044413 0.514338,-0.044413 0.514338,-3.0051204 V 1.6196715 l -7.037006,-0.044409 c -3.85749,-0.014813 -7.0837534,0.014813 -7.1772674,0.074018 z"
       id="path20-0"
       style="fill:#ffffff;stroke-width:0.0186035" />
    <path
       d="m 10.26687,2.0857902 c -0.07716,0.043167 -0.135026,1.3524069 -0.135026,2.891842 0,2.6328641 0.01928,2.791131 0.366509,2.8630636 0.366509,0.071937 0.366509,0.071937 0,0.5179386 -0.7330167,0.9063967 -0.28935,2.2300216 0.86805,2.6472616 0.559402,0.187033 0.636561,0.273354 0.482244,0.489161 -0.270059,0.388462 -0.212185,1.007111 0.154317,1.309239 0.28935,0.230204 0.28935,0.388458 0.07717,1.453114 -0.67515,3.280296 -1.601067,5.826842 -2.8934924,7.898609 -0.6944347,1.107819 -0.7330177,1.596987 -0.212192,2.230026 l 0.366509,0.460391 -0.6172757,0.04316 -0.6172757,0.04317 v 1.582598 1.582598 h 7.8124228 7.81243 v -1.582598 c 0,-1.539435 -0.01928,-1.582598 -0.443667,-1.625761 -0.443674,-0.04316 -0.443674,-0.05755 -0.115741,-0.431621 0.501534,-0.561102 0.462958,-1.496273 -0.07716,-1.999826 -1.273141,-1.179751 -3.703676,-6.877113 -3.703676,-8.704292 0,-0.273358 0.173609,-0.733753 0.366509,-1.021496 0.289356,-0.431617 0.327932,-0.647428 0.192906,-1.007108 -0.212198,-0.57549 -0.231483,-0.532327 0.135026,-0.532327 0.173609,0 0.597992,-0.215815 0.964494,-0.489169 0.578706,-0.431617 0.655865,-0.575491 0.655865,-1.2660811 0,-0.4603907 -0.115741,-0.8920118 -0.28935,-1.0646552 -0.3858,-0.3740691 -0.366515,-0.4603908 0.154317,-0.5179386 0.424376,-0.043167 0.424376,-0.043167 0.424376,-2.9206157 V 2.0570247 l -5.806271,-0.043167 c -3.182837,-0.014351 -5.844848,0.014351 -5.922014,0.071933 z"
       id="path20-7"
       style="stroke-width:0.0166592" />
  </g>
</svg>
