<?xml version="1.0" encoding="UTF-8" standalone="no"?>
<!-- Created with Inkscape (http://www.inkscape.org/) -->

<svg
   width="30mm"
   height="30mm"
   viewBox="0 0 30 30"
   version="1.1"
   id="svg9260"
   inkscape:version="1.1 (c68e22c387, 2021-05-23)"
   sodipodi:docname="SchwarzeDameSchwarzesFeld.svg"
   xmlns:inkscape="http://www.inkscape.org/namespaces/inkscape"
   xmlns:sodipodi="http://sodipodi.sourceforge.net/DTD/sodipodi-0.dtd"
   xmlns="http://www.w3.org/2000/svg"
   xmlns:svg="http://www.w3.org/2000/svg">
  <sodipodi:namedview
     id="namedview9262"
     pagecolor="#eeeeee"
     bordercolor="#666666"
     borderopacity="1.0"
     inkscape:pageshadow="2"
     inkscape:pageopacity="0"
     inkscape:pagecheckerboard="0"
     inkscape:document-units="mm"
     showgrid="false"
     width="30mm"
     borderlayer="true"
     showborder="true"
     inkscape:zoom="0.74118967"
     inkscape:cx="247.57496"
     inkscape:cy="238.13068"
     inkscape:window-width="1920"
     inkscape:window-height="1017"
     inkscape:window-x="-8"
     inkscape:window-y="1061"
     inkscape:window-maximized="1"
     inkscape:current-layer="layer7" />
  <defs
     id="defs9257" />
  <g
     inkscape:label="Ebene 1"
     inkscape:groupmode="layer"
     id="layer1"
     sodipodi:insensitive="true">
    <text
       xml:space="preserve"
       style="font-style:normal;font-weight:normal;font-size:198.688px;line-height:1.25;font-family:sans-serif;fill:#000000;fill-opacity:1;stroke:none;stroke-width:4.96721"
       x="-23.780478"
       y="111.77676"
       id="text11172"
       transform="scale(2.676286,0.37365214)"><tspan
         sodipodi:role="line"
         id="tspan11170"
         style="stroke-width:4.96721"
         x="-23.780478"
         y="111.77676">I</tspan></text>
  </g>
  <g
     inkscape:groupmode="layer"
     id="layer7"
     inkscape:label="Ebene 2">
    <path
       d="m 14.684095,1.3132668 c -0.518771,0.1646176 -0.94861,0.5906906 -0.94861,0.9489753 v 0.2517713 h -2.786556 c -1.5414968,0 -2.8310151,0.019352 -2.8754846,0.048415 -0.044462,0.029052 0.5632409,1.5203007 1.3488106,3.3214166 1.230235,2.8081954 1.467386,3.2633177 1.734184,3.2923671 0.237156,0.019379 0.281621,0.087151 0.237156,0.3970209 -0.04447,0.2420844 0.02966,0.4163862 0.177864,0.522905 0.207509,0.135568 0.192686,0.154933 -0.207511,0.213035 -0.800393,0.1162 -1.185766,0.832775 -0.666993,1.220112 0.222332,0.145252 0.207509,0.164618 -0.177864,0.232403 -0.889327,0.135566 -1.3488104,0.639105 -1.0671904,1.181376 0.1926862,0.387339 0.7707464,0.610056 1.5859624,0.610056 0.326085,0 0.666994,0.0581 0.755928,0.135568 0.57806,0.455123 0.78557,3.137431 0.400197,5.190318 -0.400197,2.052887 -0.889328,3.234266 -1.541498,3.708753 -0.192687,0.145253 -0.266799,0.416389 -0.296444,1.220112 l -0.05929,1.026445 -0.5632361,0.154934 c -1.0671894,0.300186 -1.4525677,1.132961 -0.770751,1.723652 l 0.326086,0.290502 -0.4891258,0.02905 -0.4743074,0.02905 -0.044473,1.239476 -0.044462,1.229796 7.3072913,-0.01935 7.307288,-0.02905 v -1.210427 -1.210428 l -0.592883,-0.0581 c -0.326085,-0.02905 -0.503949,-0.06778 -0.400197,-0.07747 0.103755,0 0.326086,-0.203351 0.489131,-0.445438 0.251974,-0.367969 0.266798,-0.493856 0.133398,-0.764989 -0.177867,-0.358288 -0.652174,-0.677842 -1.141301,-0.784358 -0.326085,-0.0581 -0.340909,-0.106519 -0.340909,-1.162013 0,-0.610056 -0.05928,-1.123277 -0.133398,-1.162011 -0.07411,-0.02905 -0.311263,-0.387337 -0.503954,-0.803726 -1.289518,-2.595157 -1.941689,-6.691247 -1.274696,-7.940411 0.148218,-0.280818 0.207506,-0.30987 0.800393,-0.30987 1.141298,0 1.941691,-0.658471 1.541494,-1.278211 -0.192687,-0.300186 -0.800392,-0.561639 -1.319165,-0.561639 h -0.29644 l 0.29644,-0.193669 c 0.592884,-0.387337 0.296444,-1.036127 -0.548418,-1.200744 -0.326086,-0.06779 -0.326086,-0.07747 -0.103756,-0.30987 0.148223,-0.1355683 0.207511,-0.3486035 0.177864,-0.5229052 -0.05928,-0.2517685 -0.01483,-0.2905046 0.251979,-0.2905046 0.29644,0 0.444662,-0.2614499 1.763827,-3.2729991 0.78557,-1.7914318 1.422922,-3.3020485 1.422922,-3.3407819 0,-0.038733 -1.333989,-0.067783 -2.96442,-0.067783 -2.460467,0 -2.934774,-0.019379 -2.875486,-0.1355655 0.133408,-0.2324043 -0.355718,-0.823095 -0.859672,-1.0264488 -0.57806,-0.2324004 -1.067191,-0.2420817 -1.68972,-0.038731 z"
       id="path10-4-7"
       style="fill:#ffffff;stroke-width:0.0119804" />
    <path
       d="M 14.856698,1.5592078 C 14.4261,1.7204548 14.06931,2.1378099 14.06931,2.4887685 v 0.246619 h -2.312963 c -1.279512,0 -2.349873,0.018967 -2.3867841,0.047424 -0.036891,0.02847 0.4675182,1.4891955 1.1195751,3.2534664 1.02115,2.7507417 1.217996,3.1965533 1.43945,3.2250125 0.196851,0.018995 0.233758,0.085367 0.196851,0.3888932 -0.03693,0.2371327 0.02462,0.4078714 0.147634,0.5122104 0.172241,0.132791 0.15994,0.151764 -0.172242,0.208677 -0.66436,0.113825 -0.98424,0.815737 -0.553637,1.195149 0.184549,0.142283 0.172243,0.161253 -0.147633,0.227649 -0.738181,0.132794 -1.119575,0.626032 -0.885819,1.15721 0.15994,0.379412 0.63976,0.597575 1.316422,0.597575 0.270667,0 0.553637,0.05691 0.627453,0.132793 0.47982,0.445812 0.652061,3.073247 0.332182,5.084131 -0.332182,2.010893 -0.738181,3.168103 -1.279511,3.632881 -0.15994,0.142283 -0.221454,0.407875 -0.246063,1.19515 l -0.0492,1.005449 -0.467515,0.151764 c -0.8858178,0.294042 -1.205697,1.109785 -0.639758,1.68839 l 0.270666,0.284557 -0.4059979,0.02847 -0.393697,0.02847 -0.036891,1.214117 -0.036935,1.204638 6.0653809,-0.01897 6.065382,-0.02847 v -1.185663 -1.185663 l -0.492123,-0.05692 c -0.270666,-0.02847 -0.418301,-0.06639 -0.332181,-0.07588 0.08613,0 0.270666,-0.199187 0.405998,-0.436319 0.209153,-0.360445 0.221455,-0.483755 0.110728,-0.749344 -0.147634,-0.350956 -0.541331,-0.663974 -0.947329,-0.768311 -0.270668,-0.05691 -0.28297,-0.104339 -0.28297,-1.138239 0,-0.597578 -0.04921,-1.1003 -0.110727,-1.138243 -0.06151,-0.02846 -0.258365,-0.379412 -0.4183,-0.787278 -1.070364,-2.542068 -1.611698,-6.554359 -1.058062,-7.777968 0.12303,-0.275076 0.172243,-0.303532 0.664364,-0.303532 0.947329,0 1.611693,-0.644999 1.279512,-1.252057 -0.15994,-0.294046 -0.66436,-0.550151 -1.094967,-0.550151 h -0.24606 l 0.24606,-0.189709 c 0.492121,-0.37941 0.246058,-1.014928 -0.455211,-1.176177 -0.270668,-0.0664 -0.270668,-0.07589 -0.08612,-0.303532 0.12303,-0.1327933 0.172239,-0.3414695 0.147634,-0.5122056 -0.04921,-0.246619 -0.01231,-0.2845619 0.209153,-0.2845619 0.246059,0 0.369088,-0.2561 1.464054,-3.206037 0.652063,-1.7547818 1.18109,-3.2344963 1.18109,-3.2724364 0,-0.037943 -1.107268,-0.066397 -2.4606,-0.066397 -2.0423,0 -2.435996,-0.018995 -2.386784,-0.1327987 C 17.083543,2.3749591 16.677544,1.7963542 16.259243,1.597159 15.779428,1.3695182 15.373425,1.3600263 14.856698,1.5592216 Z"
       id="path10-9-7-7-1"
       style="fill:#000000;stroke-width:0.0108026" />
  </g>
</svg>
