<?xml version="1.0" encoding="UTF-8" standalone="no"?>
<!-- Created with Inkscape (http://www.inkscape.org/) -->

<svg
   width="30mm"
   height="30mm"
   viewBox="0 0 30 30"
   version="1.1"
   id="svg9260"
   inkscape:version="1.1 (c68e22c387, 2021-05-23)"
   sodipodi:docname="SchwarzerKoenigSchwarzesFeld.svg"
   xmlns:inkscape="http://www.inkscape.org/namespaces/inkscape"
   xmlns:sodipodi="http://sodipodi.sourceforge.net/DTD/sodipodi-0.dtd"
   xmlns="http://www.w3.org/2000/svg"
   xmlns:svg="http://www.w3.org/2000/svg">
  <sodipodi:namedview
     id="namedview9262"
     pagecolor="#eeeeee"
     bordercolor="#666666"
     borderopacity="1.0"
     inkscape:pageshadow="2"
     inkscape:pageopacity="0"
     inkscape:pagecheckerboard="0"
     inkscape:document-units="mm"
     showgrid="false"
     width="30mm"
     borderlayer="true"
     showborder="true"
     inkscape:zoom="0.74118967"
     inkscape:cx="247.57496"
     inkscape:cy="238.13068"
     inkscape:window-width="1920"
     inkscape:window-height="1017"
     inkscape:window-x="-8"
     inkscape:window-y="1061"
     inkscape:window-maximized="1"
     inkscape:current-layer="layer7" />
  <defs
     id="defs9257" />
  <g
     inkscape:label="Ebene 1"
     inkscape:groupmode="layer"
     id="layer1"
     sodipodi:insensitive="true">
    <text
       xml:space="preserve"
       style="font-style:normal;font-weight:normal;font-size:198.688px;line-height:1.25;font-family:sans-serif;fill:#000000;fill-opacity:1;stroke:none;stroke-width:4.96721"
       x="-23.780478"
       y="111.77676"
       id="text11172"
       transform="scale(2.676286,0.37365214)"><tspan
         sodipodi:role="line"
         id="tspan11170"
         style="stroke-width:4.96721"
         x="-23.780478"
         y="111.77676">I</tspan></text>
  </g>
  <g
     inkscape:groupmode="layer"
     id="layer7"
     inkscape:label="Ebene 2">
    <path
       d="m 13.766252,0.56547504 c -0.136751,0.0270795 -0.197533,0.2346724 -0.197533,0.57765756 v 0.5325279 h -0.91167 -0.911675 v 0.848433 c 0,0.9477195 0,0.956746 1.154786,0.956746 h 0.668559 v 0.4061651 0.4061651 h -2.871771 c -1.5954254,0 -2.9173525,0.027077 -2.9477435,0.06318 -0.04558,0.04513 0.5925897,1.4441439 1.3979001,3.1139318 1.3827054,2.8792625 1.4738744,3.0507515 1.8081534,3.0507515 0.288694,0 0.33428,0.03611 0.258307,0.189546 -0.121556,0.21662 0.182333,0.713045 0.44064,0.713045 0.09117,0 -0.10636,0.08123 -0.455836,0.171492 -0.881283,0.234673 -1.109203,0.694994 -0.531808,1.065056 0.303889,0.189543 0.303889,0.189543 -0.182333,0.243699 -1.1851774,0.144413 -1.5802341,0.90259 -0.7293417,1.417064 0.3646707,0.207597 0.5773947,0.261749 1.1243987,0.261749 0.577391,0 0.698951,0.03611 0.866089,0.243703 0.319084,0.415188 0.36467,2.184265 0.09117,3.502043 -0.455839,2.121085 -1.245954,4.070678 -1.8537357,4.630282 -0.182334,0.171494 -0.22792,0.415191 -0.182334,1.191419 l 0.04558,0.974801 -0.4862267,0.09929 c -1.1243984,0.2437 -1.4890651,1.083111 -0.7141457,1.624669 l 0.3950617,0.279804 H 8.4937399 c -0.2886977,0 -0.5773947,0.04513 -0.6229774,0.09026 -0.04559,0.05415 -0.04559,0.577658 0.0152,1.173372 l 0.10636,1.083112 h 7.4909205 7.475725 l -0.07597,-1.065062 c -0.03036,-0.577658 -0.106364,-1.110189 -0.136751,-1.182398 -0.04559,-0.08123 -0.227919,-0.108311 -0.516617,-0.08123 -0.258307,0.02708 -0.455835,0.009 -0.455835,-0.0361 0,-0.0361 0.06078,-0.07221 0.151946,-0.07221 0.07597,0 0.258307,-0.126364 0.395058,-0.288831 0.516613,-0.586684 -0.121556,-1.426098 -1.169982,-1.561485 l -0.440644,-0.06318 v -0.965774 c 0,-0.857461 -0.03041,-0.99285 -0.303889,-1.137263 -1.382706,-0.740125 -2.355158,-6.21884 -1.413092,-7.897657 l 0.273502,-0.496424 0.896475,-0.04513 c 0.729342,-0.0361 0.942066,-0.09026 1.245955,-0.297852 0.622977,-0.433245 0.395057,-1.028953 -0.471031,-1.281679 -0.273502,-0.07221 -0.577391,-0.135386 -0.683755,-0.135386 -0.10636,0 -0.09117,-0.04513 0.06078,-0.13539 0.577396,-0.352008 0.364671,-0.884536 -0.455835,-1.128236 -0.425449,-0.126363 -0.440644,-0.15344 -0.258306,-0.361035 0.10636,-0.126363 0.151942,-0.333959 0.10636,-0.478374 -0.06078,-0.19857 -0.03037,-0.2437 0.197528,-0.2437 0.243116,0 0.501422,-0.442267 1.762568,-3.0507515 0.805315,-1.6697879 1.473875,-3.0688018 1.473875,-3.1139318 0,-0.036103 -1.291537,-0.06318 -2.886967,-0.06318 h -2.88697 V 3.8870046 3.4808395 h 0.744533 c 0.440645,0 0.805315,-0.045129 0.911675,-0.1263627 0.121556,-0.081233 0.167142,-0.4061652 0.136751,-0.8845391 l -0.04558,-0.749148 -0.866093,-0.027076 -0.881284,-0.02708 V 1.1431326 c 0,-0.39713834 -0.06078,-0.54155407 -0.243111,-0.58668407 -0.288697,-0.0631805 -3.084496,-0.0631805 -3.357998,0.009032 z"
       id="path4-9"
       style="fill:#ffffff;stroke-width:0.0117109" />
    <path
       d="M 14.124187,0.78318692 C 14.013335,0.80959611 13.964066,1.0119675 13.964066,1.3463402 V 1.8654971 H 13.22505 12.48603 V 2.692626 c 0,0.9239225 0,0.9327213 0.936088,0.9327213 h 0.541948 v 0.3959668 0.3959668 h -2.327908 c -1.293281,0 -2.3648574,0.026409 -2.3894944,0.061594 -0.03695,0.043997 0.4803637,1.4078825 1.1331634,3.0357438 1.120846,2.8069633 1.194748,2.9741473 1.465722,2.9741473 0.234023,0 0.270973,0.0352 0.209386,0.184786 -0.09853,0.211181 0.147803,0.695137 0.357194,0.695137 0.0739,0 -0.08622,0.0792 -0.369512,0.167187 -0.714384,0.22878 -0.899137,0.677542 -0.431091,1.038314 0.246337,0.184784 0.246337,0.184784 -0.147804,0.237579 -0.960724,0.140788 -1.280967,0.879927 -0.591216,1.381483 0.295606,0.202382 0.468046,0.255177 0.911455,0.255177 0.468046,0 0.56658,0.0352 0.702069,0.237582 0.258656,0.404766 0.295606,2.129418 0.0739,3.414107 -0.369508,2.067827 -1.009994,3.968465 -1.502672,4.514019 -0.147803,0.167186 -0.184754,0.404765 -0.147803,1.161504 l 0.03695,0.950322 -0.394145,0.09679 c -0.9114547,0.237583 -1.2070604,1.055915 -0.5788977,1.583875 l 0.3202427,0.272776 H 9.8501953 c -0.234023,0 -0.4680457,0.044 -0.5049957,0.08799 -0.03696,0.0528 -0.03696,0.563154 0.01232,1.143908 l 0.08622,1.055918 h 6.0722664 6.059953 l -0.06159,-1.038317 c -0.02464,-0.563154 -0.08622,-1.082314 -0.110852,-1.15271 -0.03696,-0.07919 -0.184754,-0.105591 -0.418777,-0.07919 -0.209387,0.02641 -0.369508,0.0088 -0.369508,-0.0352 0,-0.03519 0.04927,-0.07039 0.123171,-0.07039 0.06158,0 0.209386,-0.123188 0.320238,-0.281577 0.418777,-0.571952 -0.09853,-1.390289 -0.948406,-1.522276 l -0.357194,-0.0616 v -0.94152 c 0,-0.83593 -0.02464,-0.967919 -0.246337,-1.108706 -1.120846,-0.721539 -1.90913,-6.062687 -1.145478,-7.699349 l 0.221705,-0.483959 0.726701,-0.044 c 0.591217,-0.03519 0.763652,-0.08799 1.009994,-0.290374 0.504992,-0.422363 0.320238,-1.003116 -0.381826,-1.249494 -0.221709,-0.07039 -0.468047,-0.131989 -0.554266,-0.131989 -0.08622,0 -0.0739,-0.04399 0.04927,-0.131989 0.468046,-0.34317 0.295606,-0.862324 -0.369512,-1.099906 -0.344876,-0.12319 -0.35719,-0.149586 -0.209387,-0.351971 0.08622,-0.12319 0.123171,-0.325573 0.08622,-0.466361 -0.04927,-0.193586 -0.02464,-0.237579 0.160117,-0.237579 0.197073,0 0.406463,-0.431165 1.428771,-2.9741471 0.6528,-1.6278613 1.194747,-2.9917472 1.194747,-3.0357438 0,-0.035195 -1.046944,-0.061594 -2.340225,-0.061594 H 17.043316 V 4.0213141 3.6253473 h 0.60353 c 0.357194,0 0.6528,-0.043996 0.73902,-0.1231876 0.09853,-0.079196 0.135485,-0.3959668 0.110853,-0.8623283 l -0.03695,-0.7303403 -0.70207,-0.026409 -0.714383,-0.026409 V 1.3463146 c 0,-0.3871652 -0.04927,-0.52795294 -0.197072,-0.57195207 -0.234023,-0.0615934 -2.500343,-0.0615934 -2.722052,0.008801 z"
       id="path4-3-1"
       style="fill:#000000;stroke-width:0.0104106" />
  </g>
</svg>
