<?xml version="1.0" encoding="UTF-8" standalone="no"?>
<!-- Created with Inkscape (http://www.inkscape.org/) -->

<svg
   width="30mm"
   height="30mm"
   viewBox="0 0 30 30"
   version="1.1"
   id="svg9260"
   inkscape:version="1.1 (c68e22c387, 2021-05-23)"
   sodipodi:docname="SchwarzeDameWeissesFeld.svg"
   xmlns:inkscape="http://www.inkscape.org/namespaces/inkscape"
   xmlns:sodipodi="http://sodipodi.sourceforge.net/DTD/sodipodi-0.dtd"
   xmlns="http://www.w3.org/2000/svg"
   xmlns:svg="http://www.w3.org/2000/svg">
  <sodipodi:namedview
     id="namedview9262"
     pagecolor="#eeeeee"
     bordercolor="#666666"
     borderopacity="1.0"
     inkscape:pageshadow="2"
     inkscape:pageopacity="0"
     inkscape:pagecheckerboard="0"
     inkscape:document-units="mm"
     showgrid="false"
     width="30mm"
     borderlayer="true"
     showborder="true"
     inkscape:zoom="0.74118967"
     inkscape:cx="247.57496"
     inkscape:cy="238.13068"
     inkscape:window-width="1920"
     inkscape:window-height="1017"
     inkscape:window-x="-8"
     inkscape:window-y="1061"
     inkscape:window-maximized="1"
     inkscape:current-layer="layer7" />
  <defs
     id="defs9257" />
  <g
     inkscape:label="Ebene 1"
     inkscape:groupmode="layer"
     id="layer1"
     sodipodi:insensitive="true">
    <text
       xml:space="preserve"
       style="font-style:normal;font-weight:normal;font-size:198.688px;line-height:1.25;font-family:sans-serif;fill:#ffffff;fill-opacity:1;stroke:none;stroke-width:4.96721"
       x="-23.780478"
       y="111.77676"
       id="text11172"
       transform="scale(2.676286,0.37365214)"><tspan
         sodipodi:role="line"
         id="tspan11170"
         style="fill:#ffffff;stroke-width:4.96721"
         x="-23.780478"
         y="111.77676">I</tspan></text>
  </g>
  <g
     inkscape:groupmode="layer"
     id="layer7"
     inkscape:label="Ebene 2">
    <path
       d="M 14.224618,0.95811867 C 13.742877,1.1248083 13.34372,1.556244 13.34372,1.9190383 v 0.2549401 h -2.587638 c -1.4314584,0 -2.6289288,0.019595 -2.6702208,0.049024 -0.04129,0.029418 0.5230327,1.539436 1.2525264,3.3632215 1.1424134,2.8435406 1.3626384,3.3043914 1.6103904,3.3338064 0.220225,0.019623 0.261517,0.088248 0.220225,0.4020179 -0.04129,0.2451315 0.02753,0.421627 0.165168,0.5294867 0.192697,0.1372746 0.178933,0.1568841 -0.192696,0.2157161 -0.743258,0.117663 -1.101123,0.843257 -0.619382,1.235469 0.206461,0.147081 0.192697,0.16669 -0.165168,0.235329 -0.8258417,0.137271 -1.2525264,0.647149 -0.9910094,1.196245 0.1789317,0.392215 0.7157284,0.617734 1.4727504,0.617734 0.302809,0 0.619382,0.05883 0.701966,0.137275 0.536797,0.460851 0.729494,3.17692 0.371629,5.255645 -0.371629,2.078726 -0.825842,3.274974 -1.43146,3.755434 -0.178932,0.14708 -0.247752,0.42163 -0.27528,1.235469 l -0.05506,1.039364 -0.5230327,0.156883 C 8.6364179,25.236063 8.2785532,26.07932 8.9116989,26.677445 l 0.3028077,0.294158 -0.4542127,0.02941 -0.4404487,0.02942 -0.04129,1.255078 -0.04129,1.245274 6.7856668,-0.0196 6.785668,-0.02942 V 28.256113 27.03045 l -0.550561,-0.05883 c -0.302809,-0.02941 -0.467977,-0.06864 -0.371629,-0.07844 0.09635,0 0.302809,-0.20591 0.454213,-0.451045 0.233989,-0.3726 0.247753,-0.500071 0.123876,-0.774618 -0.165168,-0.362797 -0.605617,-0.686373 -1.05983,-0.79423 -0.302809,-0.05883 -0.316573,-0.107859 -0.316573,-1.176638 0,-0.617735 -0.05506,-1.137416 -0.123876,-1.176637 -0.06882,-0.02942 -0.289045,-0.392212 -0.467977,-0.813841 -1.197471,-2.627822 -1.803088,-6.775467 -1.183707,-8.040354 0.137641,-0.284352 0.192697,-0.31377 0.743258,-0.31377 1.05983,0 1.803088,-0.666758 1.431459,-1.294299 -0.178932,-0.303964 -0.743258,-0.568707 -1.224999,-0.568707 h -0.27528 l 0.27528,-0.196108 c 0.550562,-0.392217 0.275281,-1.049172 -0.509269,-1.215862 -0.302808,-0.06864 -0.302808,-0.078444 -0.09635,-0.3137699 0.13764,-0.1372746 0.192696,-0.3529911 0.165168,-0.5294867 -0.05506,-0.2549374 -0.01376,-0.2941611 0.233989,-0.2941611 0.275281,0 0.412921,-0.2647433 1.63792,-3.3141945 0.729493,-1.8139795 1.321347,-3.3436096 1.321347,-3.3828305 0,-0.039221 -1.238763,-0.068636 -2.752807,-0.068636 -2.284829,0 -2.725278,-0.019623 -2.670222,-0.1372746 0.123876,-0.2353283 -0.330337,-0.8334509 -0.798314,-1.03936421 -0.536797,-0.23532554 -0.99101,-0.24513147 -1.5691,-0.0392209 z"
       id="path10"
       style="stroke-width:0.0116173" />
  </g>
</svg>
