<?xml version="1.0" encoding="UTF-8" standalone="no"?>
<!-- Created with Inkscape (http://www.inkscape.org/) -->

<svg
   width="30mm"
   height="30mm"
   viewBox="0 0 30 30"
   version="1.1"
   id="svg9260"
   inkscape:version="1.1 (c68e22c387, 2021-05-23)"
   sodipodi:docname="WeisserBauerWeissesFeld.svg"
   xmlns:inkscape="http://www.inkscape.org/namespaces/inkscape"
   xmlns:sodipodi="http://sodipodi.sourceforge.net/DTD/sodipodi-0.dtd"
   xmlns="http://www.w3.org/2000/svg"
   xmlns:svg="http://www.w3.org/2000/svg">
  <sodipodi:namedview
     id="namedview9262"
     pagecolor="#eeeeee"
     bordercolor="#666666"
     borderopacity="1.0"
     inkscape:pageshadow="2"
     inkscape:pageopacity="0"
     inkscape:pagecheckerboard="0"
     inkscape:document-units="mm"
     showgrid="false"
     width="30mm"
     borderlayer="true"
     showborder="true"
     inkscape:zoom="0.74118967"
     inkscape:cx="247.57496"
     inkscape:cy="238.13068"
     inkscape:window-width="1920"
     inkscape:window-height="1017"
     inkscape:window-x="-8"
     inkscape:window-y="1061"
     inkscape:window-maximized="1"
     inkscape:current-layer="layer7" />
  <defs
     id="defs9257" />
  <g
     inkscape:label="Ebene 1"
     inkscape:groupmode="layer"
     id="layer1"
     sodipodi:insensitive="true">
    <text
       xml:space="preserve"
       style="font-style:normal;font-weight:normal;font-size:198.688px;line-height:1.25;font-family:sans-serif;fill:#ffffff;fill-opacity:1;stroke:none;stroke-width:4.96721"
       x="-23.780478"
       y="111.77676"
       id="text11172"
       transform="scale(2.676286,0.37365214)"><tspan
         sodipodi:role="line"
         id="tspan11170"
         style="fill:#ffffff;stroke-width:4.96721"
         x="-23.780478"
         y="111.77676">I</tspan></text>
  </g>
  <g
     inkscape:groupmode="layer"
     id="layer7"
     inkscape:label="Ebene 2">
    <path
       d="m 14.20444,5.0912518 c -3.978555,0.7659276 -5.547875,4.7870545 -2.740783,6.9978042 0.243134,0.19148 0.419959,0.365555 0.375753,0.382964 -1.724041,0.67889 -2.2545152,1.270746 -2.4755462,2.645934 -0.066309,0.539631 -0.088412,1.061859 -0.022105,1.148892 0.088412,0.08704 0.6409891,0.156667 1.2598752,0.156667 h 1.127258 l -0.154722,0.992229 c -0.198928,1.462226 -1.4367,3.324824 -3.1607409,4.769646 -1.5693195,1.305559 -1.9008654,2.036674 -1.4145976,3.150753 0.221031,0.470002 0.1989278,0.609261 -0.088412,0.765928 -0.2873401,0.174076 -0.3315465,0.504819 -0.2873401,1.65371 l 0.066309,1.462226 8.3549676,0.05223 8.332863,0.03479 v -1.549264 c 0,-0.940003 -0.08841,-1.584081 -0.243134,-1.618893 -0.154721,-0.03484 -0.154721,-0.208893 0,-0.539636 0.132619,-0.278517 0.243134,-0.852965 0.243134,-1.28815 0,-0.731115 -0.110515,-0.870374 -1.392494,-1.932227 -2.387134,-1.984453 -3.00602,-2.941865 -3.094433,-4.874093 l -0.06631,-1.079267 h 1.392494 1.392495 V 15.5009 c -0.0221,-1.497043 -1.105155,-2.907048 -2.254515,-2.907048 -0.530474,0 -0.508371,-0.08704 0.243134,-0.835557 2.276618,-2.3151909 0.884124,-5.7270575 -2.674473,-6.5626144 -1.21567,-0.2785223 -1.679835,-0.2959309 -2.71868,-0.1044465 z"
       id="path24-2"
       style="stroke-width:0.0196153" />
    <path
       d="m 14.342354,5.4013098 c -3.288711,0.7273208 -4.5859271,4.5457624 -2.265559,6.6450832 0.200977,0.181828 0.347144,0.34713 0.310603,0.363661 -1.425112,0.644674 -1.863605,1.206703 -2.046311,2.512572 -0.05482,0.512438 -0.07308,1.00834 -0.0183,1.090986 0.07308,0.08265 0.52985,0.148772 1.041423,0.148772 h 0.931803 l -0.12789,0.942214 c -0.164437,1.388526 -1.187596,3.157237 -2.6127017,4.529238 -1.2972158,1.239753 -1.5712725,1.934023 -1.1693194,2.991944 0.1827066,0.446312 0.1644365,0.578549 -0.073086,0.727321 -0.2375166,0.165302 -0.2740567,0.479372 -0.2375166,1.570358 l 0.054823,1.388521 6.9062967,0.04959 6.888025,0.03306 v -1.471172 c 0,-0.892628 -0.07308,-1.504242 -0.200976,-1.537298 -0.12789,-0.03311 -0.12789,-0.198363 0,-0.512437 0.109626,-0.264479 0.200976,-0.809972 0.200976,-1.223223 0,-0.694266 -0.09135,-0.826503 -1.151049,-1.834833 -1.973226,-1.884433 -2.484805,-2.793586 -2.557885,-4.628423 l -0.05482,-1.024866 h 1.151049 1.15105 v -0.876097 c -0.0183,-1.421582 -0.913533,-2.760521 -1.863606,-2.760521 -0.438493,0 -0.420223,-0.08265 0.200977,-0.793442 C 20.682235,9.5338161 19.531186,6.2939232 16.589618,5.5004814 15.584729,5.2359926 15.201052,5.2194623 14.342329,5.4012999 Z"
       id="path24-8-8"
       style="fill:#ffffff;stroke-width:0.0173786" />
  </g>
</svg>
