<?xml version="1.0" encoding="UTF-8" standalone="no"?>
<!-- Created with Inkscape (http://www.inkscape.org/) -->

<svg
   width="30mm"
   height="30mm"
   viewBox="0 0 30 30"
   version="1.1"
   id="svg9260"
   inkscape:version="1.1 (c68e22c387, 2021-05-23)"
   sodipodi:docname="WeisserSpringerWeissesFeld.svg"
   xmlns:inkscape="http://www.inkscape.org/namespaces/inkscape"
   xmlns:sodipodi="http://sodipodi.sourceforge.net/DTD/sodipodi-0.dtd"
   xmlns="http://www.w3.org/2000/svg"
   xmlns:svg="http://www.w3.org/2000/svg">
  <sodipodi:namedview
     id="namedview9262"
     pagecolor="#eeeeee"
     bordercolor="#666666"
     borderopacity="1.0"
     inkscape:pageshadow="2"
     inkscape:pageopacity="0"
     inkscape:pagecheckerboard="0"
     inkscape:document-units="mm"
     showgrid="false"
     width="30mm"
     borderlayer="true"
     showborder="true"
     inkscape:zoom="0.74118967"
     inkscape:cx="247.57496"
     inkscape:cy="238.13068"
     inkscape:window-width="1920"
     inkscape:window-height="1017"
     inkscape:window-x="-8"
     inkscape:window-y="1061"
     inkscape:window-maximized="1"
     inkscape:current-layer="layer7" />
  <defs
     id="defs9257" />
  <g
     inkscape:label="Ebene 1"
     inkscape:groupmode="layer"
     id="layer1"
     sodipodi:insensitive="true">
    <text
       xml:space="preserve"
       style="font-style:normal;font-weight:normal;font-size:198.688px;line-height:1.25;font-family:sans-serif;fill:#ffffff;fill-opacity:1;stroke:none;stroke-width:4.96721"
       x="-23.780478"
       y="111.77676"
       id="text11172"
       transform="scale(2.676286,0.37365214)"><tspan
         sodipodi:role="line"
         id="tspan11170"
         style="fill:#ffffff;stroke-width:4.96721"
         x="-23.780478"
         y="111.77676">I</tspan></text>
  </g>
  <g
     inkscape:groupmode="layer"
     id="layer7"
     inkscape:label="Ebene 2">
    <path
       d="M 9.0110336,1.4605623 C 8.0452162,2.2184271 7.1821448,3.7493141 6.8122571,5.2802011 l -0.30824,1.4247857 1.0274664,3.1072459 C 9.4220206,15.526533 10.017951,18.254847 10.017951,21.240834 v 1.394472 L 9.2987246,22.83235 c -1.0685644,0.287989 -1.5411981,0.818494 -1.5411981,1.758247 0,0.712393 0.0822,0.848808 0.6164787,1.197426 l 0.6164804,0.378932 -0.7603254,0.04547 -0.7808747,0.04547 v 1.51573 1.51573 h 8.6307175 8.630718 v -1.51573 -1.51573 l -0.780874,-0.04547 -0.780875,-0.04547 0.63703,-0.439561 c 0.513733,-0.363775 0.61648,-0.530505 0.61648,-1.167112 0,-0.924595 -0.32879,-1.28837 -1.643947,-1.697617 -0.90417,-0.287989 -1.027466,-0.378932 -1.027466,-0.773022 0,-0.348618 0.184943,-0.530506 0.863072,-0.863966 0.452085,-0.22736 1.027466,-0.591135 1.232959,-0.803337 0.863072,-0.863966 0.801424,-2.985987 -0.123296,-4.471402 -0.28769,-0.469876 -1.52065,-1.621831 -3.267343,-3.031459 -1.911088,-1.546045 -2.815258,-2.394854 -2.815258,-2.622213 0,-0.5305055 0.575381,-1.3489995 1.294607,-1.7885608 0.678128,-0.4244044 0.554832,-0.409247 3.883824,-0.1212587 0.842522,0.075787 1.027466,0.045472 1.500101,-0.3031457 0.657579,-0.4850335 0.657579,-1.0458535 0.02055,-1.4247857 -0.575381,-0.3183035 -0.493184,-0.5001909 0.452085,-0.8488088 0.452086,-0.1667304 0.657579,-0.3637752 0.657579,-0.6062917 0,-0.39409 -0.63703,-1.0761683 -1.23296,-1.3035274 C 23.991497,3.8099433 22.244804,3.5825837 20.354265,3.3703815 15.360778,2.8398763 13.675733,2.5822023 13.059253,2.2335845 12.751013,2.066854 12.422224,1.9304384 12.319477,1.9304384 c -0.102746,0 -0.59593,-0.1970448 -1.089114,-0.4547187 C 10.10015,0.91489961 9.7097133,0.91489961 9.0110356,1.4605617 Z"
       id="path16-6"
       style="stroke-width:0.0176486" />
    <path
       d="M 9.7708923,1.5699062 C 8.9425996,2.3157213 8.2024162,3.8222589 7.8851982,5.3288055 L 7.6208485,6.7309385 8.5020139,9.7887743 C 10.123351,15.412212 10.634431,18.097143 10.634431,21.035647 v 1.372299 l -0.61681,0.193911 c -0.9164124,0.283409 -1.3217511,0.805478 -1.3217511,1.730287 0,0.701064 0.07049,0.835312 0.5287007,1.178388 l 0.5287007,0.372906 -0.6520627,0.04475 -0.6696887,0.04476 v 1.49163 1.491625 h 7.4017821 7.401789 v -1.491625 -1.49163 l -0.669683,-0.04476 -0.669684,-0.04475 0.546322,-0.432574 c 0.44058,-0.357988 0.528695,-0.52207 0.528695,-1.148549 0,-0.909897 -0.281972,-1.26789 -1.409868,-1.670628 -0.775419,-0.283404 -0.881166,-0.372906 -0.881166,-0.760728 0,-0.343076 0.158615,-0.52207 0.740184,-0.850229 0.387712,-0.22374 0.881166,-0.581733 1.057402,-0.790561 0.740172,-0.850229 0.687304,-2.938508 -0.105748,-4.4003 -0.246724,-0.462407 -1.304114,-1.596044 -2.802101,-2.98326 -1.638971,-1.521459 -2.41439,-2.356771 -2.41439,-2.580516 0,-0.5220703 0.493454,-1.3275483 1.110264,-1.7601165 0.581574,-0.4176558 0.475833,-0.4027386 3.330808,-0.119336 0.722552,0.074585 0.881167,0.044758 1.2865,-0.2983198 0.563948,-0.4773242 0.563948,-1.0292276 0.01765,-1.402133 -0.493453,-0.3132417 -0.422959,-0.4922363 0.387707,-0.8353116 0.387718,-0.1640777 0.563948,-0.3579886 0.563948,-0.5966507 0,-0.3878217 -0.546316,-1.0590559 -1.05739,-1.2828012 C 22.618304,3.8819269 21.120322,3.6581868 19.498978,3.4493544 15.216521,2.9272888 13.771407,2.67371 13.2427,2.3306381 12.978355,2.1665569 12.696384,2.0323089 12.608269,2.0323089 c -0.08812,0 -0.51108,-0.1939113 -0.934039,-0.4474855 C 10.704949,1.0329196 10.37011,1.0329196 9.7709153,1.5698714 Z"
       id="path16-69-2"
       style="fill:#ffffff;stroke-width:0.0162134" />
  </g>
</svg>
