<?xml version="1.0" encoding="UTF-8" standalone="no"?>
<!-- Created with Inkscape (http://www.inkscape.org/) -->

<svg
   width="30mm"
   height="30mm"
   viewBox="0 0 30 30"
   version="1.1"
   id="svg9260"
   inkscape:version="1.1 (c68e22c387, 2021-05-23)"
   sodipodi:docname="WeisserTurmWeissesFeld.svg"
   xmlns:inkscape="http://www.inkscape.org/namespaces/inkscape"
   xmlns:sodipodi="http://sodipodi.sourceforge.net/DTD/sodipodi-0.dtd"
   xmlns="http://www.w3.org/2000/svg"
   xmlns:svg="http://www.w3.org/2000/svg">
  <sodipodi:namedview
     id="namedview9262"
     pagecolor="#eeeeee"
     bordercolor="#666666"
     borderopacity="1.0"
     inkscape:pageshadow="2"
     inkscape:pageopacity="0"
     inkscape:pagecheckerboard="0"
     inkscape:document-units="mm"
     showgrid="false"
     width="30mm"
     borderlayer="true"
     showborder="true"
     inkscape:zoom="0.74118967"
     inkscape:cx="246.90036"
     inkscape:cy="238.80527"
     inkscape:window-width="1353"
     inkscape:window-height="1040"
     inkscape:window-x="3589"
     inkscape:window-y="437"
     inkscape:window-maximized="0"
     inkscape:current-layer="layer7" />
  <defs
     id="defs9257" />
  <g
     inkscape:label="Ebene 1"
     inkscape:groupmode="layer"
     id="layer1"
     sodipodi:insensitive="true">
    <text
       xml:space="preserve"
       style="font-style:normal;font-weight:normal;font-size:198.688px;line-height:1.25;font-family:sans-serif;fill:#ffffff;fill-opacity:1;stroke:none;stroke-width:4.96721"
       x="-23.780478"
       y="111.77676"
       id="text11172"
       transform="scale(2.676286,0.37365214)"><tspan
         sodipodi:role="line"
         id="tspan11170"
         style="fill:#ffffff;stroke-width:4.96721"
         x="-23.780478"
         y="111.77676">I</tspan></text>
  </g>
  <g
     inkscape:groupmode="layer"
     id="layer7"
     inkscape:label="Ebene 2">
    <path
       d="m 7.3491078,1.6503126 c -0.09704,0.045 -0.169821,1.4100385 -0.169821,3.015082 0,2.7450745 0.02426,2.910081 0.460943,2.9850835 0.460943,0.075003 0.460943,0.075003 0,0.540015 -0.9218863,0.9450261 -0.363903,2.3250619 1.091706,2.7600759 0.703545,0.195005 0.800586,0.285009 0.606505,0.510012 -0.339643,0.405016 -0.266862,1.050032 0.194081,1.365039 0.363902,0.240009 0.363902,0.405011 0.09704,1.515044 -0.849105,3.420093 -2.013593,6.075168 -3.6390225,8.235227 -0.8733654,1.155033 -0.921886,1.665045 -0.266862,2.325067 l 0.460943,0.480009 -0.7763248,0.045 -0.7763249,0.045 v 1.650048 1.650043 h 9.8253604 9.825361 v -1.650043 c 0,-1.605048 -0.02427,-1.650048 -0.557984,-1.695048 -0.557984,-0.045 -0.557984,-0.06 -0.145557,-0.450015 0.630763,-0.585015 0.582239,-1.560039 -0.09704,-2.085057 -1.601175,-1.230031 -4.657954,-7.1702 -4.657954,-9.075249 0,-0.285009 0.218342,-0.765022 0.460945,-1.065033 0.363904,-0.450011 0.412421,-0.675018 0.242603,-1.050027 -0.266865,-0.600016 -0.291127,-0.555016 0.169818,-0.555016 0.218341,0 0.752064,-0.225008 1.213008,-0.510012 0.727802,-0.450016 0.824849,-0.600016 0.824849,-1.3200392 0,-0.4800138 -0.145563,-0.9300248 -0.363905,-1.1100284 -0.485206,-0.3900141 -0.460944,-0.4800137 0.19408,-0.5400149 0.533723,-0.045004 0.533723,-0.045004 0.533723,-3.0450847 V 1.6203099 l -7.302305,-0.045 c -4.002922,-0.01501 -7.3508252,0.01501 -7.4478662,0.075002 z"
       id="path20-9"
       style="stroke-width:0.0190765" />
    <path
       d="m 8.4265428,2.0051492 c -0.08007,0.043741 -0.140117,1.3703921 -0.140117,2.9302996 0,2.6678779 0.02001,2.8282496 0.380326,2.9011389 0.380327,0.072894 0.380327,0.072894 0,0.5248265 -0.760653,0.9184506 -0.300258,2.2596778 0.900777,2.6824668 0.5804922,0.18952 0.6605602,0.276989 0.5004252,0.495666 -0.2802412,0.393628 -0.2201852,1.020505 0.160135,1.326651 0.300259,0.233265 0.300259,0.393624 0.08008,1.472437 -0.7006042,3.32392 -1.6614302,5.904332 -3.0025822,8.003651 -0.7206163,1.122551 -0.7606536,1.618225 -0.2201917,2.259682 l 0.3803267,0.466513 -0.6405483,0.04374 -0.6405482,0.04374 v 1.603648 1.603645 h 8.1069627 8.10697 v -1.603645 c 0,-1.559907 -0.02001,-1.603648 -0.460395,-1.647385 -0.460401,-0.04373 -0.460401,-0.05831 -0.120104,-0.437361 0.520443,-0.568564 0.480412,-1.516171 -0.08007,-2.026421 -1.321141,-1.19544 -3.84331,-6.96857 -3.84331,-8.820047 0,-0.276994 0.180154,-0.743512 0.380327,-1.035081 0.300265,-0.437357 0.340296,-0.656038 0.200179,-1.020501 -0.220198,-0.583144 -0.24021,-0.539407 0.140117,-0.539407 0.180154,0 0.620536,-0.218685 1.000856,-0.495674 0.600525,-0.437357 0.680592,-0.583144 0.680592,-1.2829184 0,-0.4665134 -0.120105,-0.9038744 -0.300259,-1.0788138 -0.400345,-0.3790437 -0.380333,-0.4665134 0.160136,-0.5248265 0.440375,-0.043741 0.440375,-0.043741 0.440375,-2.9594562 v -2.915715 l -6.025176,-0.043741 c -3.302834,-0.014542 -6.0652062,0.014542 -6.1452802,0.072889 z"
       id="path20-7-1"
       style="fill:#ffffff;stroke-width:0.0170828" />
  </g>
</svg>
