<?xml version="1.0" encoding="UTF-8" standalone="no"?>
<!-- Created with Inkscape (http://www.inkscape.org/) -->

<svg
   width="30mm"
   height="30mm"
   viewBox="0 0 30 30"
   version="1.1"
   id="svg9260"
   inkscape:version="1.1 (c68e22c387, 2021-05-23)"
   sodipodi:docname="WeisserLaeuferWeissesFeld.svg"
   xmlns:inkscape="http://www.inkscape.org/namespaces/inkscape"
   xmlns:sodipodi="http://sodipodi.sourceforge.net/DTD/sodipodi-0.dtd"
   xmlns="http://www.w3.org/2000/svg"
   xmlns:svg="http://www.w3.org/2000/svg">
  <sodipodi:namedview
     id="namedview9262"
     pagecolor="#eeeeee"
     bordercolor="#666666"
     borderopacity="1.0"
     inkscape:pageshadow="2"
     inkscape:pageopacity="0"
     inkscape:pagecheckerboard="0"
     inkscape:document-units="mm"
     showgrid="false"
     width="30mm"
     borderlayer="true"
     showborder="true"
     inkscape:zoom="0.74118967"
     inkscape:cx="247.57496"
     inkscape:cy="238.13068"
     inkscape:window-width="1920"
     inkscape:window-height="1017"
     inkscape:window-x="-8"
     inkscape:window-y="1061"
     inkscape:window-maximized="1"
     inkscape:current-layer="layer7" />
  <defs
     id="defs9257" />
  <g
     inkscape:label="Ebene 1"
     inkscape:groupmode="layer"
     id="layer1"
     sodipodi:insensitive="true">
    <text
       xml:space="preserve"
       style="font-style:normal;font-weight:normal;font-size:198.688px;line-height:1.25;font-family:sans-serif;fill:#ffffff;fill-opacity:1;stroke:none;stroke-width:4.96721"
       x="-23.780478"
       y="111.77676"
       id="text11172"
       transform="scale(2.676286,0.37365214)"><tspan
         sodipodi:role="line"
         id="tspan11170"
         style="fill:#ffffff;stroke-width:4.96721"
         x="-23.780478"
         y="111.77676">I</tspan></text>
  </g>
  <g
     inkscape:groupmode="layer"
     id="layer7"
     inkscape:label="Ebene 2">
    <path
       d="m 14.37674,1.0282224 c -1.680704,0.2388323 -2.807763,0.9987535 -2.946174,2.0083631 -0.07909,0.5536565 -0.01977,0.7382089 0.39546,1.1507373 l 0.474551,0.4885207 -0.652508,0.4450966 c -2.5111674,1.6826824 -2.9857181,4.8309271 -1.06774,7.0889779 0.692053,0.79249 0.67228,0.770777 0.316367,0.770777 -0.395459,0 -1.1072857,0.521089 -1.1072857,0.803346 0,0.130272 0.13841,0.336536 0.2965937,0.466808 0.296595,0.227977 0.276822,0.249688 -0.1977287,0.314825 -1.0281944,0.141128 -1.4434264,0.933617 -0.7118277,1.33529 0.3756867,0.206264 0.3756867,0.206264 -0.2570477,0.2714 -2.4123018,0.249688 -1.8784321,2.019219 0.5931884,2.019219 0.8304647,0 0.9095567,0.02171 1.1863777,0.37996 0.138411,0.206265 0.276822,0.510233 0.276822,0.673073 0,0.488521 -0.850238,1.357002 -1.9575244,1.964939 l -1.0084204,0.575369 v 1.183306 c 0,1.183305 0,1.194161 -0.4943237,1.259297 -0.7909184,0.10856 -1.4829721,0.640505 -1.4829721,1.139882 0,0.455953 0.4547777,1.074745 0.7909187,1.074745 0.1186367,0 0.1977287,0.03257 0.1977287,0.07599 0,0.05428 -0.3361397,0.08685 -0.7315984,0.08685 -0.7513737,0 -0.7513737,0 -0.8106917,0.48852 -0.03955,0.271401 -0.01977,0.890194 0.05932,1.389571 l 0.138411,0.890191 h 9.6689813 9.688757 l -0.05932,-1.378712 -0.05932,-1.38957 h -0.632735 c -0.751373,0 -0.790919,-0.05428 -0.257049,-0.325681 0.435006,-0.21712 0.692055,-0.792489 0.494325,-1.129025 -0.217503,-0.390817 -1.067741,-0.857626 -1.680703,-0.933618 l -0.593189,-0.07599 v -1.11817 -1.129026 l -1.166606,-0.629649 c -1.285243,-0.694785 -1.720248,-1.259298 -1.542292,-2.030075 0.177957,-0.705641 0.692054,-0.977041 2.016844,-1.053033 1.423654,-0.08685 1.977297,-0.358249 1.977297,-0.95533 0,-0.510232 -0.632735,-0.944473 -1.522519,-1.042177 -0.553643,-0.07599 -0.573416,-0.08685 -0.237276,-0.282256 0.692055,-0.423385 0.237276,-1.194162 -0.810692,-1.33529 -0.454778,-0.06514 -0.454778,-0.07599 -0.177956,-0.390817 0.355913,-0.37996 0.217503,-0.694785 -0.454779,-1.042177 l -0.474551,-0.238833 0.395459,-0.445096 c 0.711827,-0.749065 1.067741,-1.812955 1.047968,-3.0505406 0,-0.6296488 -0.09886,-1.302722 -0.177956,-1.4981302 L 20.961139,7.5418316 19.30021,8.5840091 17.63928,9.6261866 17.026318,9.3005063 16.433129,8.9748256 16.828588,8.7251372 C 17.046091,8.5840091 17.916102,8.0520644 18.746567,7.5418316 19.577032,7.020743 20.269085,6.5322223 20.269085,6.45623 c 0,-0.086848 -0.316367,-0.4016723 -0.692053,-0.694785 C 18.410426,4.8278277 18.390653,4.7952598 18.90475,4.4152993 19.43862,4.0136267 19.63635,3.0908656 19.280437,2.5154966 18.647702,1.4516069 16.354037,0.75682216 14.37674,1.0282224 Z"
       id="path12"
       style="stroke-width:0.0146511" />
    <path
       d="m 14.38315,1.4348113 c -1.447514,0.2341536 -2.4182,0.9791905 -2.537407,1.9690223 -0.06812,0.542813 -0.01703,0.7237494 0.340592,1.1281953 l 0.408709,0.4789515 -0.561976,0.436378 c -2.1627557,1.6497227 -2.5714644,4.7362996 -0.919597,6.9501166 0.596035,0.776967 0.579006,0.755681 0.272474,0.755681 -0.340592,0 -0.953656,0.51088 -0.953656,0.787609 0,0.127722 0.119206,0.329944 0.255443,0.457666 0.255444,0.223509 0.238414,0.244798 -0.170296,0.308654 -0.8855377,0.138363 -1.2431584,0.915331 -0.6130647,1.309137 0.3235617,0.202223 0.3235617,0.202223 -0.221384,0.266082 -2.0776078,0.244798 -1.6178091,1.979666 0.5108877,1.979666 0.715241,0 0.78336,0.02126 1.021773,0.372517 0.119208,0.202225 0.238415,0.500238 0.238415,0.659891 0,0.478951 -0.732271,1.33042 -1.6859277,1.926446 l -0.8685084,0.5641 v 1.160126 c 0,1.160126 0,1.170771 -0.425739,1.234633 -0.6811834,0.106429 -1.2772181,0.627957 -1.2772181,1.11755 0,0.447021 0.3916797,1.053695 0.6811817,1.053695 0.1021777,0 0.1702967,0.03195 0.1702967,0.0745 0,0.05322 -0.2895027,0.08515 -0.6300947,0.08515 -0.6471234,0 -0.6471234,0 -0.6982114,0.47895 -0.03406,0.266084 -0.01703,0.872761 0.05109,1.362349 l 0.1192067,0.872754 h 8.3274622 8.344492 l -0.05108,-1.351701 -0.05109,-1.362352 h -0.544946 c -0.647125,0 -0.681183,-0.05322 -0.221385,-0.3193 0.374651,-0.212868 0.596036,-0.776968 0.42574,-1.106912 -0.187326,-0.383158 -0.919598,-0.840827 -1.447514,-0.915328 l -0.510888,-0.07451 v -1.096263 -1.106912 l -1.004745,-0.617315 c -1.106922,-0.681174 -1.481573,-1.23463 -1.328306,-1.990308 0.153266,-0.691819 0.596035,-0.957901 1.737017,-1.032408 1.226129,-0.08515 1.702957,-0.351227 1.702957,-0.936614 0,-0.500238 -0.544946,-0.925972 -1.311277,-1.021762 -0.476828,-0.0745 -0.493858,-0.08515 -0.204355,-0.276727 0.596035,-0.415092 0.204355,-1.170774 -0.698212,-1.309137 -0.391681,-0.06386 -0.391681,-0.0745 -0.153267,-0.383162 0.306532,-0.372516 0.187325,-0.681174 -0.39168,-1.021759 l -0.40871,-0.234157 0.340591,-0.436375 c 0.613066,-0.734392 0.919597,-1.777442 0.902568,-2.9907852 0,-0.6173147 -0.08515,-1.2772025 -0.153266,-1.4687836 L 20.054006,7.8208299 18.623521,8.8425927 17.193036,9.8643554 16.665119,9.5450565 16.154233,9.2257541 16.494823,8.9809593 C 16.682149,8.8425927 17.43145,8.321068 18.146693,7.8208299 18.861936,7.30995 19.45797,6.8309988 19.45797,6.7564934 c 0,-0.085146 -0.272473,-0.3938052 -0.596034,-0.6811762 C 17.85719,5.1599876 17.84016,5.1280588 18.282929,4.7555414 18.742728,4.3617365 18.913024,3.4570508 18.606491,2.8929536 18.061545,1.8499015 16.086114,1.1687283 14.383157,1.4348113 Z"
       id="path12-48"
       style="fill:#ffffff;stroke-width:0.013463" />
  </g>
</svg>
