<?xml version="1.0" encoding="UTF-8" standalone="no"?>
<!-- Created with Inkscape (http://www.inkscape.org/) -->

<svg
   width="30mm"
   height="30mm"
   viewBox="0 0 30 30"
   version="1.1"
   id="svg9260"
   inkscape:version="1.1 (c68e22c387, 2021-05-23)"
   sodipodi:docname="WeisserKoenigWeissesFeld.svg"
   xmlns:inkscape="http://www.inkscape.org/namespaces/inkscape"
   xmlns:sodipodi="http://sodipodi.sourceforge.net/DTD/sodipodi-0.dtd"
   xmlns="http://www.w3.org/2000/svg"
   xmlns:svg="http://www.w3.org/2000/svg">
  <sodipodi:namedview
     id="namedview9262"
     pagecolor="#eeeeee"
     bordercolor="#666666"
     borderopacity="1.0"
     inkscape:pageshadow="2"
     inkscape:pageopacity="0"
     inkscape:pagecheckerboard="0"
     inkscape:document-units="mm"
     showgrid="false"
     width="30mm"
     borderlayer="true"
     showborder="true"
     inkscape:zoom="0.74118967"
     inkscape:cx="247.57496"
     inkscape:cy="238.13068"
     inkscape:window-width="1920"
     inkscape:window-height="1017"
     inkscape:window-x="-8"
     inkscape:window-y="1061"
     inkscape:window-maximized="1"
     inkscape:current-layer="layer7" />
  <defs
     id="defs9257" />
  <g
     inkscape:label="Ebene 1"
     inkscape:groupmode="layer"
     id="layer1"
     sodipodi:insensitive="true">
    <text
       xml:space="preserve"
       style="font-style:normal;font-weight:normal;font-size:198.688px;line-height:1.25;font-family:sans-serif;fill:#ffffff;fill-opacity:1;stroke:none;stroke-width:4.96721"
       x="-23.780478"
       y="111.77676"
       id="text11172"
       transform="scale(2.676286,0.37365214)"><tspan
         sodipodi:role="line"
         id="tspan11170"
         style="fill:#ffffff;stroke-width:4.96721"
         x="-23.780478"
         y="111.77676">I</tspan></text>
  </g>
  <g
     inkscape:groupmode="layer"
     id="layer7"
     inkscape:label="Ebene 2">
    <path
       d="m 13.633004,0.56548366 c -0.139922,0.027084 -0.202109,0.23471117 -0.202109,0.57775304 v 0.5326159 h -0.932814 -0.932812 v 0.8485741 c 0,0.9478762 0,0.9569041 1.181563,0.9569041 h 0.684063 v 0.4062323 0.4062324 h -2.938361 c -1.6324227,0 -2.9850017,0.027081 -3.0160957,0.06319 -0.04664,0.045138 0.606329,1.4443834 1.430313,3.1144468 1.4147667,2.8797387 1.5080477,3.0512567 1.8500797,3.0512567 0.29539,0 0.342031,0.03611 0.264297,0.189576 -0.124375,0.216657 0.186562,0.713163 0.450859,0.713163 0.09328,0 -0.108828,0.08124 -0.466406,0.171521 -0.90172,0.234712 -1.1349227,0.695109 -0.544141,1.065232 0.310938,0.189574 0.310938,0.189574 -0.186563,0.243739 -1.2126567,0.144437 -1.6168757,0.902739 -0.7462497,1.4173 0.373125,0.207629 0.5907807,0.261792 1.1504687,0.261792 0.590782,0 0.715157,0.03611 0.886173,0.243741 0.326484,0.415259 0.373125,2.184628 0.09328,3.502624 -0.466407,2.121435 -1.274845,4.071351 -1.8967197,4.631048 -0.186562,0.171521 -0.233203,0.41526 -0.186562,1.191615 l 0.04664,0.974964 -0.4975,0.0993 c -1.15047,0.243741 -1.523595,1.083289 -0.730704,1.624936 l 0.404219,0.279851 h -0.559687 c -0.295391,0 -0.590782,0.04513 -0.637423,0.09028 -0.04664,0.05417 -0.04664,0.577754 0.01555,1.173566 l 0.108829,1.083291 h 7.6646127 7.649067 l -0.07774,-1.065237 c -0.03109,-0.577753 -0.108828,-1.110372 -0.139922,-1.182594 -0.04664,-0.08124 -0.233203,-0.108328 -0.528594,-0.08124 -0.264297,0.02709 -0.466407,0.009 -0.466407,-0.03611 0,-0.03611 0.06219,-0.07222 0.155469,-0.07222 0.07773,0 0.264297,-0.126384 0.404219,-0.288878 0.528594,-0.586781 -0.124375,-1.426333 -1.19711,-1.561743 l -0.45086,-0.06319 v -0.965935 c 0,-0.857602 -0.0311,-0.993014 -0.310937,-1.137451 -1.414767,-0.740246 -2.409767,-6.219868 -1.44586,-7.898963 l 0.279844,-0.496507 0.917266,-0.04513 c 0.74625,-0.03611 0.963906,-0.09027 1.274844,-0.297902 0.637422,-0.433316 0.404219,-1.029123 -0.481954,-1.281891 -0.279843,-0.07222 -0.590781,-0.135409 -0.699609,-0.135409 -0.108828,0 -0.09328,-0.04513 0.06219,-0.135412 0.590781,-0.352066 0.373125,-0.884682 -0.466407,-1.128421 -0.435313,-0.126384 -0.45086,-0.153465 -0.264297,-0.361096 0.108828,-0.126383 0.155469,-0.334013 0.108828,-0.478452 -0.06219,-0.198603 -0.03109,-0.24374 0.202109,-0.24374 0.248751,0 0.513048,-0.442342 1.803439,-3.0512567 0.823985,-1.6700633 1.508048,-3.0693093 1.508048,-3.1144468 0,-0.036109 -1.321485,-0.06319 -2.953908,-0.06319 h -2.95391 V 3.8875631 3.4813308 h 0.761797 c 0.45086,0 0.823985,-0.045138 0.932813,-0.1263836 0.124375,-0.081246 0.171016,-0.4062323 0.139922,-0.884686 L 19.105509,1.7209901 18.219336,1.6939087 17.317617,1.6668246 V 1.1432367 c 0,-0.39720392 -0.06219,-0.54164358 -0.24875,-0.58678104 -0.295391,-0.0631902 -3.156018,-0.0631902 -3.435862,0.009033 z"
       id="path4"
       style="stroke-width:0.0118469" />
    <path
       d="M 13.780731,0.85998495 C 13.667308,0.88639879 13.616897,1.0888026 13.616897,1.4232313 v 0.5192428 h -0.756154 -0.756155 v 0.8272656 c 0,0.9240753 0,0.9328755 0.957796,0.9328755 h 0.554513 V 4.0986475 4.4946798 H 11.23501 c -1.3232697,0 -2.4196937,0.026414 -2.4448987,0.061604 -0.03781,0.044003 0.491501,1.4081145 1.159437,3.0362449 1.1468337,2.8074283 1.2224497,2.9746393 1.4997067,2.9746393 0.239449,0 0.277256,0.0352 0.214243,0.184817 -0.100821,0.211216 0.151231,0.695253 0.365475,0.695253 0.07561,0 -0.08822,0.07921 -0.378078,0.167214 -0.730949,0.228818 -0.919987,0.677654 -0.441089,1.038486 0.252051,0.184815 0.252051,0.184815 -0.151231,0.237618 -0.983001,0.140811 -1.3106677,0.880072 -0.604924,1.381712 0.302462,0.202415 0.478898,0.255218 0.932591,0.255218 0.478897,0 0.579718,0.03521 0.718346,0.237622 0.264655,0.404832 0.302462,2.12977 0.07562,3.414672 -0.378077,2.068169 -1.033412,3.969121 -1.537514,4.514765 -0.151231,0.167214 -0.189039,0.404832 -0.151231,1.161695 l 0.03781,0.95048 -0.403282,0.09681 c -0.9325907,0.237623 -1.2350517,1.056089 -0.5923217,1.584138 l 0.327668,0.272821 h -0.453693 c -0.239449,0 -0.478898,0.044 -0.516705,0.08801 -0.03781,0.0528 -0.03781,0.563247 0.0126,1.144098 l 0.08822,1.056092 h 6.2130687 6.200467 l -0.06301,-1.03849 c -0.0252,-0.563247 -0.08822,-1.082492 -0.113424,-1.152899 -0.0378,-0.07921 -0.189038,-0.105609 -0.428487,-0.07921 -0.214244,0.02641 -0.378078,0.0088 -0.378078,-0.0352 0,-0.0352 0.05041,-0.0704 0.126026,-0.0704 0.06301,0 0.214244,-0.123209 0.327667,-0.281624 0.428488,-0.572046 -0.10082,-1.390519 -0.970398,-1.522527 l -0.365475,-0.06161 V 23.86505 c 0,-0.836068 -0.0252,-0.968079 -0.252052,-1.10889 -1.146834,-0.721657 -1.953399,-6.063688 -1.172039,-7.700622 l 0.226847,-0.484038 0.743552,-0.044 c 0.604923,-0.0352 0.781359,-0.088 1.033411,-0.290422 0.516706,-0.422433 0.327667,-1.003282 -0.39068,-1.249702 -0.226847,-0.0704 -0.478898,-0.13201 -0.567116,-0.13201 -0.08822,0 -0.07561,-0.044 0.05041,-0.132012 0.478898,-0.343225 0.302462,-0.862466 -0.378077,-1.100086 -0.352872,-0.123211 -0.365475,-0.149611 -0.214244,-0.352029 0.08822,-0.12321 0.126026,-0.325628 0.08822,-0.466438 -0.05041,-0.193618 -0.0252,-0.23762 0.163833,-0.23762 0.201642,0 0.415885,-0.431235 1.461899,-2.9746388 0.667937,-1.6281304 1.222451,-2.9922419 1.222451,-3.0362449 0,-0.035202 -1.071219,-0.061604 -2.39449,-0.061604 H 16.767542 V 4.0986475 3.7026152 h 0.617526 c 0.365475,0 0.667937,-0.044004 0.756155,-0.123208 0.100821,-0.079209 0.138628,-0.3960322 0.113424,-0.8624717 L 18.216837,1.9864754 17.49849,1.9600614 16.76754,1.9336474 V 1.4232057 c 0,-0.3872295 -0.05041,-0.52804023 -0.201641,-0.57204666 -0.239448,-0.0616033 -2.558323,-0.0616033 -2.785169,0.0088 z"
       id="path4-3"
       style="fill:#ffffff;stroke-width:0.0105315" />
  </g>
</svg>
