<?xml version="1.0" encoding="UTF-8" standalone="no"?>
<!-- Created with Inkscape (http://www.inkscape.org/) -->

<svg
   width="30mm"
   height="30mm"
   viewBox="0 0 30 30"
   version="1.1"
   id="svg9260"
   inkscape:version="1.1 (c68e22c387, 2021-05-23)"
   sodipodi:docname="WeisseDameWeissesFeld.svg"
   xmlns:inkscape="http://www.inkscape.org/namespaces/inkscape"
   xmlns:sodipodi="http://sodipodi.sourceforge.net/DTD/sodipodi-0.dtd"
   xmlns="http://www.w3.org/2000/svg"
   xmlns:svg="http://www.w3.org/2000/svg">
  <sodipodi:namedview
     id="namedview9262"
     pagecolor="#eeeeee"
     bordercolor="#666666"
     borderopacity="1.0"
     inkscape:pageshadow="2"
     inkscape:pageopacity="0"
     inkscape:pagecheckerboard="0"
     inkscape:document-units="mm"
     showgrid="false"
     width="30mm"
     borderlayer="true"
     showborder="true"
     inkscape:zoom="0.74118967"
     inkscape:cx="247.57496"
     inkscape:cy="238.13068"
     inkscape:window-width="1920"
     inkscape:window-height="1017"
     inkscape:window-x="-8"
     inkscape:window-y="1061"
     inkscape:window-maximized="1"
     inkscape:current-layer="layer7" />
  <defs
     id="defs9257" />
  <g
     inkscape:label="Ebene 1"
     inkscape:groupmode="layer"
     id="layer1"
     sodipodi:insensitive="true">
    <text
       xml:space="preserve"
       style="font-style:normal;font-weight:normal;font-size:198.688px;line-height:1.25;font-family:sans-serif;fill:#ffffff;fill-opacity:1;stroke:none;stroke-width:4.96721"
       x="-23.780478"
       y="111.77676"
       id="text11172"
       transform="scale(2.676286,0.37365214)"><tspan
         sodipodi:role="line"
         id="tspan11170"
         style="fill:#ffffff;stroke-width:4.96721"
         x="-23.780478"
         y="111.77676">I</tspan></text>
  </g>
  <g
     inkscape:groupmode="layer"
     id="layer7"
     inkscape:label="Ebene 2">
    <path
       d="M 14.569011,1.130309 C 14.08727,1.2969986 13.688113,1.7284344 13.688113,2.0912286 v 0.2549401 h -2.587638 c -1.4314597,0 -2.6289301,0.019595 -2.6702221,0.049024 -0.04129,0.029418 0.5230327,1.5394357 1.2525264,3.363221 1.1424147,2.8435403 1.3626387,3.304391 1.6103917,3.333806 0.220225,0.019623 0.261517,0.088248 0.220225,0.4020179 -0.04129,0.2451315 0.02753,0.421627 0.165168,0.5294864 0.192696,0.137275 0.178932,0.156884 -0.192697,0.215717 -0.743257,0.117662 -1.101122,0.843257 -0.619381,1.235469 0.206461,0.14708 0.192696,0.166689 -0.165168,0.235328 -0.8258417,0.137272 -1.2525264,0.647149 -0.9910107,1.196245 0.178933,0.392215 0.7157297,0.617735 1.4727517,0.617735 0.302808,0 0.619381,0.05883 0.701965,0.137274 0.536798,0.460851 0.729494,3.17692 0.371629,5.255645 -0.371629,2.078726 -0.825842,3.274973 -1.431459,3.755433 -0.178932,0.147081 -0.247753,0.42163 -0.275281,1.235469 l -0.05506,1.039364 -0.5230327,0.156884 c -0.9910107,0.303964 -1.3488744,1.147221 -0.7157297,1.745346 l 0.3028087,0.294158 -0.4542127,0.02942 -0.4404487,0.02942 -0.04129,1.255078 -0.04129,1.245273 6.7856671,-0.0196 6.785668,-0.02942 v -1.225661 -1.225663 l -0.550561,-0.05883 c -0.302809,-0.02942 -0.467977,-0.06864 -0.371629,-0.07844 0.09635,0 0.302809,-0.20591 0.454213,-0.451044 0.233989,-0.372601 0.247753,-0.500072 0.123876,-0.774618 -0.165168,-0.362797 -0.605617,-0.686374 -1.05983,-0.79423 -0.302809,-0.05883 -0.316573,-0.10786 -0.316573,-1.176639 0,-0.617734 -0.05506,-1.137415 -0.123876,-1.176636 -0.06882,-0.02942 -0.289045,-0.392212 -0.467977,-0.813842 -1.197471,-2.627821 -1.803088,-6.775466 -1.183707,-8.040352 0.13764,-0.284353 0.192696,-0.313771 0.743258,-0.313771 1.05983,0 1.803088,-0.666758 1.431459,-1.294298 -0.178932,-0.303965 -0.743258,-0.568708 -1.224999,-0.568708 h -0.27528 l 0.27528,-0.196107 c 0.550562,-0.392212 0.275281,-1.049168 -0.509269,-1.215858 -0.302809,-0.06864 -0.302809,-0.07844 -0.09635,-0.3137696 0.13764,-0.1372747 0.192696,-0.3529911 0.165168,-0.5294866 -0.05506,-0.2549374 -0.01377,-0.2941611 0.233989,-0.2941611 0.275281,0 0.412921,-0.2647433 1.63792,-3.3141942 0.729493,-1.8139794 1.321347,-3.3436091 1.321347,-3.3828301 0,-0.039221 -1.238763,-0.068636 -2.752807,-0.068636 -2.284829,0 -2.725278,-0.019623 -2.670222,-0.1372746 C 17.060301,1.9735797 16.606088,1.3754572 16.138111,1.1695438 15.601314,0.93421833 15.1471,0.92441241 14.569011,1.1303228 Z"
       id="path10-9"
       style="stroke-width:0.0116173" />
    <path
       d="M 14.680997,1.361521 C 14.281136,1.5247974 13.949815,1.9474056 13.949815,2.3027814 V 2.5525045 H 11.80196 c -1.188174,0 -2.1821307,0.019206 -2.2164057,0.048021 -0.03426,0.028828 0.4341437,1.5079388 1.0396557,3.2944155 0.948256,2.7853636 1.131051,3.2367863 1.336697,3.2656037 0.182798,0.019234 0.21707,0.086441 0.182798,0.393788 -0.0343,0.2401173 0.02286,0.4130051 0.137095,0.5186573 0.159947,0.134462 0.148523,0.153674 -0.159946,0.211303 -0.616935,0.115259 -0.913981,0.826005 -0.514116,1.210193 0.171374,0.144073 0.159947,0.163282 -0.137095,0.230514 -0.685487,0.134464 -1.039656,0.633911 -0.822586,1.171774 0.148523,0.384188 0.594092,0.605097 1.222451,0.605097 0.251346,0 0.514116,0.05763 0.582663,0.134464 0.445568,0.451423 0.605515,3.111928 0.30847,5.148122 -0.30847,2.036203 -0.685487,3.207977 -1.188175,3.678606 -0.148523,0.144073 -0.205646,0.413008 -0.228498,1.210192 l -0.0457,1.018104 -0.43414,0.153674 c -0.822586,0.297744 -1.1196307,1.123754 -0.594092,1.709641 l 0.251346,0.288138 -0.377017,0.02883 -0.3655927,0.02883 -0.03426,1.229398 -0.0343,1.2198 5.6324107,-0.01921 5.632411,-0.02883 v -1.200585 -1.200587 l -0.456992,-0.05763 c -0.251346,-0.02882 -0.388441,-0.06723 -0.30847,-0.07684 0.07998,0 0.251346,-0.201694 0.377017,-0.441811 0.194223,-0.364982 0.205647,-0.489844 0.102824,-0.758776 -0.137095,-0.355373 -0.502688,-0.672331 -0.879705,-0.777981 -0.251346,-0.05763 -0.26277,-0.105652 -0.26277,-1.152566 0,-0.605099 -0.0457,-1.114148 -0.102823,-1.152568 -0.05712,-0.02882 -0.239923,-0.384188 -0.388441,-0.797187 -0.993956,-2.574064 -1.496648,-6.636855 -0.982533,-7.875865 0.114248,-0.278538 0.159947,-0.307352 0.616939,-0.307352 0.879706,0 1.496645,-0.653117 1.188175,-1.267816 C 19.730732,11.936319 19.26232,11.67699 18.862451,11.67699 h -0.228494 l 0.228494,-0.192096 c 0.457005,-0.384185 0.228507,-1.027702 -0.422703,-1.190981 -0.251346,-0.06724 -0.251346,-0.07684 -0.07997,-0.3073528 0.114247,-0.1344646 0.159943,-0.3457673 0.137095,-0.5186523 -0.0457,-0.2497231 -0.01143,-0.2881435 0.194222,-0.2881435 0.228495,0 0.342742,-0.2593234 1.359546,-3.2463894 0.605515,-1.776868 1.096779,-3.2752067 1.096779,-3.3136243 0,-0.03842 -1.028228,-0.067232 -2.284954,-0.067232 -1.896513,0 -2.262106,-0.019234 -2.216406,-0.1344701 C 16.748881,2.1875395 16.371864,1.6016522 15.983423,1.3999497 15.537858,1.1694438 15.160838,1.1598324 14.680997,1.3615349 Z"
       id="path10-9-7-7"
       style="fill:#ffffff;stroke-width:0.0104753" />
  </g>
</svg>
