<?xml version="1.0" encoding="UTF-8" standalone="no"?>
<!-- Created with Inkscape (http://www.inkscape.org/) -->

<svg
   width="30mm"
   height="30mm"
   viewBox="0 0 30 30"
   version="1.1"
   id="svg9260"
   inkscape:version="1.1 (c68e22c387, 2021-05-23)"
   sodipodi:docname="WeisserLaeuferSchwarzesFeld.svg"
   xmlns:inkscape="http://www.inkscape.org/namespaces/inkscape"
   xmlns:sodipodi="http://sodipodi.sourceforge.net/DTD/sodipodi-0.dtd"
   xmlns="http://www.w3.org/2000/svg"
   xmlns:svg="http://www.w3.org/2000/svg">
  <sodipodi:namedview
     id="namedview9262"
     pagecolor="#eeeeee"
     bordercolor="#666666"
     borderopacity="1.0"
     inkscape:pageshadow="2"
     inkscape:pageopacity="0"
     inkscape:pagecheckerboard="0"
     inkscape:document-units="mm"
     showgrid="false"
     width="30mm"
     borderlayer="true"
     showborder="true"
     inkscape:zoom="0.74118967"
     inkscape:cx="247.57496"
     inkscape:cy="238.13068"
     inkscape:window-width="1920"
     inkscape:window-height="1017"
     inkscape:window-x="-8"
     inkscape:window-y="1061"
     inkscape:window-maximized="1"
     inkscape:current-layer="layer7" />
  <defs
     id="defs9257" />
  <g
     inkscape:label="Ebene 1"
     inkscape:groupmode="layer"
     id="layer1"
     sodipodi:insensitive="true">
    <text
       xml:space="preserve"
       style="font-style:normal;font-weight:normal;font-size:198.688px;line-height:1.25;font-family:sans-serif;fill:#000000;fill-opacity:1;stroke:none;stroke-width:4.96721"
       x="-23.780478"
       y="111.77676"
       id="text11172"
       transform="scale(2.676286,0.37365214)"><tspan
         sodipodi:role="line"
         id="tspan11170"
         style="stroke-width:4.96721"
         x="-23.780478"
         y="111.77676">I</tspan></text>
  </g>
  <g
     inkscape:groupmode="layer"
     id="layer7"
     inkscape:label="Ebene 2">
    <path
       d="m 14.367172,1.0282198 c -1.711352,0.2388326 -2.858968,0.9987534 -2.999901,2.008363 -0.08053,0.5536568 -0.02015,0.7382091 0.402668,1.1507375 l 0.483208,0.4885206 -0.664404,0.4450967 c -2.5569624,1.6826823 -3.0401691,4.8309272 -1.087212,7.0889784 0.704673,0.792487 0.684538,0.770777 0.322134,0.770777 -0.402673,0 -1.1274807,0.521087 -1.1274807,0.803343 0,0.130274 0.140938,0.336539 0.302005,0.46681 0.3020047,0.227976 0.2818697,0.249689 -0.201337,0.314823 -1.0469414,0.141131 -1.4697441,0.933618 -0.7248077,1.335291 0.382539,0.206265 0.382539,0.206265 -0.2617357,0.271399 -2.4562928,0.249692 -1.9126871,2.01922 0.6040047,2.01922 0.8456104,0 0.9261444,0.02169 1.2080144,0.379959 0.140939,0.206269 0.281871,0.510235 0.281871,0.673073 0,0.48852 -0.86574,1.357004 -1.9932211,1.964939 l -1.0268137,0.575368 v 1.183306 c 0,1.183307 0,1.194163 -0.5033357,1.259297 -0.8053414,0.108561 -1.5100141,0.640505 -1.5100141,1.139883 0,0.455953 0.4630667,1.074745 0.8053417,1.074745 0.120797,0 0.2013307,0.03257 0.2013307,0.07599 0,0.05428 -0.3422687,0.08685 -0.7449364,0.08685 -0.7650777,0 -0.7650777,0 -0.8254767,0.488521 -0.04029,0.271402 -0.02015,0.890194 0.0604,1.389568 l 0.140938,0.890194 h 9.8453053 9.865442 l -0.0604,-1.378711 -0.0604,-1.389572 h -0.644274 c -0.765078,0 -0.805342,-0.05428 -0.261736,-0.325682 0.442938,-0.217119 0.704674,-0.792487 0.503337,-1.129023 -0.221472,-0.390816 -1.087212,-0.857627 -1.711352,-0.933617 l -0.604005,-0.07599 v -1.118169 -1.129026 l -1.18788,-0.629649 c -1.308684,-0.694785 -1.751622,-1.259297 -1.57042,-2.030073 0.181202,-0.705642 0.704674,-0.977041 2.053621,-1.053035 1.449616,-0.08685 2.013357,-0.35825 2.013357,-0.955328 0,-0.510231 -0.644274,-0.944474 -1.550284,-1.042178 -0.563741,-0.07599 -0.58387,-0.08685 -0.241601,-0.282256 0.704673,-0.423384 0.241601,-1.19416 -0.825476,-1.335291 -0.463073,-0.06513 -0.463073,-0.07599 -0.181202,-0.390816 0.362404,-0.37996 0.221471,-0.694783 -0.463073,-1.042176 l -0.483207,-0.238832 0.402674,-0.445097 c 0.724808,-0.749066 1.087212,-1.812954 1.067077,-3.0505409 0,-0.6296485 -0.100669,-1.3027213 -0.181202,-1.4981296 L 21.071647,7.5418289 19.38043,8.5840064 17.689207,9.6261823 17.065067,9.3005029 16.461063,8.9748235 16.863731,8.7251349 c 0.221471,-0.1411285 1.107347,-0.6730732 1.952958,-1.183306 0.845605,-0.5210886 1.550284,-1.0096092 1.550284,-1.0856015 0,-0.086848 -0.32214,-0.4016723 -0.704679,-0.6947847 C 18.47442,4.8278252 18.454285,4.7952572 18.977756,4.4152968 19.521362,4.0136242 19.722699,3.0908629 19.360295,2.5154939 18.71602,1.4516045 16.380529,0.75681956 14.367172,1.0282198 Z"
       id="path12-9"
       style="fill:#ffffff;stroke-width:0.0147841" />
  </g>
</svg>
