<?xml version="1.0" encoding="UTF-8" standalone="no"?>
<!-- Created with Inkscape (http://www.inkscape.org/) -->

<svg
   width="30mm"
   height="30mm"
   viewBox="0 0 30 30"
   version="1.1"
   id="svg9260"
   inkscape:version="1.1 (c68e22c387, 2021-05-23)"
   sodipodi:docname="WeisserKoenigSchwarzesFeld.svg"
   xmlns:inkscape="http://www.inkscape.org/namespaces/inkscape"
   xmlns:sodipodi="http://sodipodi.sourceforge.net/DTD/sodipodi-0.dtd"
   xmlns="http://www.w3.org/2000/svg"
   xmlns:svg="http://www.w3.org/2000/svg">
  <sodipodi:namedview
     id="namedview9262"
     pagecolor="#eeeeee"
     bordercolor="#666666"
     borderopacity="1.0"
     inkscape:pageshadow="2"
     inkscape:pageopacity="0"
     inkscape:pagecheckerboard="0"
     inkscape:document-units="mm"
     showgrid="false"
     width="30mm"
     borderlayer="true"
     showborder="true"
     inkscape:zoom="0.74118967"
     inkscape:cx="247.57496"
     inkscape:cy="238.13068"
     inkscape:window-width="1920"
     inkscape:window-height="1017"
     inkscape:window-x="-8"
     inkscape:window-y="1061"
     inkscape:window-maximized="1"
     inkscape:current-layer="layer7" />
  <defs
     id="defs9257" />
  <g
     inkscape:label="Ebene 1"
     inkscape:groupmode="layer"
     id="layer1"
     sodipodi:insensitive="true">
    <text
       xml:space="preserve"
       style="font-style:normal;font-weight:normal;font-size:198.688px;line-height:1.25;font-family:sans-serif;fill:#000000;fill-opacity:1;stroke:none;stroke-width:4.96721"
       x="-23.780478"
       y="111.77676"
       id="text11172"
       transform="scale(2.676286,0.37365214)"><tspan
         sodipodi:role="line"
         id="tspan11170"
         style="stroke-width:4.96721"
         x="-23.780478"
         y="111.77676">I</tspan></text>
  </g>
  <g
     inkscape:groupmode="layer"
     id="layer7"
     inkscape:label="Ebene 2">
    <path
       d="m 13.79887,0.39327826 c -0.13358,0.0270788 -0.192953,0.23467247 -0.192953,0.57765697 V 1.5034632 h -0.890531 -0.890534 v 0.848434 c 0,0.9477197 0,0.9567463 1.128008,0.9567463 h 0.653057 v 0.4061652 0.4061652 h -2.80518 c -1.5584304,0 -2.8497038,0.027077 -2.8793908,0.06318 -0.04453,0.045129 0.5788497,1.4441443 1.3654864,3.1139327 1.3506424,2.8792624 1.4396974,3.0507524 1.7662254,3.0507524 0.281999,0 0.326528,0.03611 0.252317,0.189546 -0.118737,0.216619 0.178105,0.713044 0.430422,0.713044 0.08906,0 -0.103894,0.08123 -0.445265,0.171492 -0.860849,0.234673 -1.083484,0.694995 -0.519477,1.065056 0.296842,0.189544 0.296842,0.189544 -0.178105,0.243699 -1.1576944,0.144414 -1.5435914,0.902591 -0.7124297,1.417066 0.3562147,0.207595 0.5640057,0.261749 1.0983257,0.261749 0.564003,0 0.682744,0.03611 0.846006,0.243702 0.311685,0.415189 0.356214,2.184266 0.08905,3.502044 -0.445269,2.121087 -1.217063,4.07068 -1.810751,4.630284 -0.1781047,0.171492 -0.2226347,0.415191 -0.1781047,1.191419 l 0.04453,0.974802 -0.474952,0.09929 c -1.0983251,0.2437 -1.4545361,1.083113 -0.6975854,1.624671 l 0.3859007,0.279804 H 8.6486199 c -0.2820027,0 -0.5640057,0.04513 -0.6085317,0.09026 -0.04453,0.05415 -0.04453,0.577658 0.01485,1.173373 l 0.103894,1.083112 h 7.3172168 7.302375 l -0.07421,-1.065062 c -0.02966,-0.577658 -0.103898,-1.11019 -0.13358,-1.182399 -0.04453,-0.08123 -0.222635,-0.108311 -0.504638,-0.08123 -0.252317,0.02708 -0.445265,0.009 -0.445265,-0.0361 0,-0.0361 0.05937,-0.07221 0.148423,-0.07221 0.07421,0 0.252317,-0.126364 0.385897,-0.288831 0.504634,-0.586685 -0.118737,-1.4261 -1.142852,-1.561488 l -0.430427,-0.06319 v -0.965775 c 0,-0.857461 -0.0297,-0.99285 -0.296842,-1.137263 -1.350643,-0.740125 -2.300546,-6.218842 -1.380325,-7.897659 l 0.26716,-0.496425 0.875687,-0.04513 c 0.71243,-0.0361 0.920221,-0.09026 1.217063,-0.297853 0.608532,-0.433244 0.385897,-1.028952 -0.460108,-1.281678 -0.26716,-0.07221 -0.564002,-0.135386 -0.6679,-0.135386 -0.103894,0 -0.08905,-0.04513 0.05937,-0.13539 0.564007,-0.352009 0.356215,-0.884537 -0.445265,-1.128236 -0.415583,-0.126363 -0.430426,-0.15344 -0.252317,-0.361035 0.103894,-0.126363 0.148419,-0.333959 0.103894,-0.478375 -0.05937,-0.198569 -0.02966,-0.243699 0.192948,-0.243699 0.237478,0 0.489795,-0.4422687 1.721697,-3.0507519 0.786641,-1.6697884 1.439698,-3.0688034 1.439698,-3.1139327 0,-0.036104 -1.261588,-0.06318 -2.820023,-0.06318 H 17.316484 V 3.7148087 3.3086435 h 0.727268 c 0.430426,0 0.786641,-0.04513 0.890535,-0.1263628 0.118737,-0.081233 0.163266,-0.4061652 0.13358,-0.88454 L 19.023337,1.5485932 18.177328,1.5215162 17.31648,1.4944362 V 0.97093523 c 0,-0.3971385 -0.05937,-0.54155424 -0.237474,-0.58668348 -0.282003,-0.0631805 -3.012972,-0.0631805 -3.280132,0.009032 z"
       id="path4-9-6"
       style="fill:#ffffff;stroke-width:0.0115743" />
  </g>
</svg>
