<?xml version="1.0" encoding="UTF-8" standalone="no"?>
<!-- Created with Inkscape (http://www.inkscape.org/) -->

<svg
   width="30mm"
   height="30mm"
   viewBox="0 0 30 30"
   version="1.1"
   id="svg9260"
   inkscape:version="1.1 (c68e22c387, 2021-05-23)"
   sodipodi:docname="WeisseDameSchwarzesFeld.svg"
   xmlns:inkscape="http://www.inkscape.org/namespaces/inkscape"
   xmlns:sodipodi="http://sodipodi.sourceforge.net/DTD/sodipodi-0.dtd"
   xmlns="http://www.w3.org/2000/svg"
   xmlns:svg="http://www.w3.org/2000/svg">
  <sodipodi:namedview
     id="namedview9262"
     pagecolor="#eeeeee"
     bordercolor="#666666"
     borderopacity="1.0"
     inkscape:pageshadow="2"
     inkscape:pageopacity="0"
     inkscape:pagecheckerboard="0"
     inkscape:document-units="mm"
     showgrid="false"
     width="30mm"
     borderlayer="true"
     showborder="true"
     inkscape:zoom="0.74118967"
     inkscape:cx="247.57496"
     inkscape:cy="238.13068"
     inkscape:window-width="1920"
     inkscape:window-height="1017"
     inkscape:window-x="-8"
     inkscape:window-y="1061"
     inkscape:window-maximized="1"
     inkscape:current-layer="layer7" />
  <defs
     id="defs9257" />
  <g
     inkscape:label="Ebene 1"
     inkscape:groupmode="layer"
     id="layer1"
     sodipodi:insensitive="true">
    <text
       xml:space="preserve"
       style="font-style:normal;font-weight:normal;font-size:198.688px;line-height:1.25;font-family:sans-serif;fill:#000000;fill-opacity:1;stroke:none;stroke-width:4.96721"
       x="-23.780478"
       y="111.77676"
       id="text11172"
       transform="scale(2.676286,0.37365214)"><tspan
         sodipodi:role="line"
         id="tspan11170"
         style="stroke-width:4.96721"
         x="-23.780478"
         y="111.77676">I</tspan></text>
  </g>
  <g
     inkscape:groupmode="layer"
     id="layer7"
     inkscape:label="Ebene 2">
    <path
       d="M 14.312277,0.42000769 C 13.781161,0.59084112 13.341095,1.0330021 13.341095,1.4048152 v 0.2612779 h -2.852861 c -1.5781761,0 -2.8983775,0.020082 -2.9439045,0.050243 -0.04552,0.030149 0.5766427,1.5777055 1.3809044,3.4468293 1.2595071,2.9142295 1.5023021,3.3865368 1.7754481,3.416683 0.242798,0.020111 0.288321,0.090442 0.242798,0.4120119 -0.04553,0.2512253 0.03037,0.4321084 0.182096,0.5426494 0.212447,0.1406872 0.197272,0.1607837 -0.212447,0.2210791 -0.819438,0.1205878 -1.2139807,0.8642202 -0.682865,1.2661822 0.227623,0.150737 0.212447,0.170833 -0.182096,0.241178 -0.9104874,0.140685 -1.3809041,0.663237 -1.0925824,1.225983 0.197271,0.401965 0.7890857,0.633091 1.6236984,0.633091 0.333845,0 0.682865,0.0603 0.773915,0.140688 0.591815,0.472307 0.804262,3.255896 0.409719,5.386298 -0.409719,2.130401 -0.910488,3.356387 -1.578177,3.848791 -0.1972707,0.150737 -0.2731457,0.432111 -0.3034967,1.266182 l -0.0607,1.065202 -0.5766387,0.160784 c -1.0925824,0.311521 -1.4871301,1.17574 -0.7890897,1.788735 l 0.333844,0.301471 -0.5007637,0.03015 -0.4855937,0.03015 -0.04553,1.286278 -0.04552,1.276231 7.4811645,-0.02008 7.481161,-0.03015 v -1.25613 -1.256133 l -0.60699,-0.06029 c -0.333845,-0.03015 -0.515941,-0.07034 -0.409719,-0.08039 0.106221,0 0.333844,-0.211029 0.500769,-0.462257 0.25797,-0.381863 0.273146,-0.512504 0.136573,-0.793875 -0.182101,-0.371816 -0.667694,-0.703436 -1.168458,-0.813974 -0.333845,-0.0603 -0.349021,-0.110541 -0.349021,-1.20589 0,-0.633091 -0.0607,-1.16569 -0.136573,-1.205886 -0.07587,-0.03015 -0.318668,-0.401963 -0.515944,-0.834074 -1.320203,-2.693147 -1.987892,-6.943901 -1.305027,-8.240232 0.151744,-0.291421 0.212443,-0.32157 0.819438,-0.32157 1.168453,0 1.987891,-0.683334 1.578172,-1.326475 -0.197271,-0.31152 -0.819437,-0.582845 -1.350554,-0.582845 h -0.303493 l 0.303493,-0.200983 c 0.606991,-0.401962 0.303498,-1.0752489 -0.561467,-1.2460823 -0.333845,-0.070345 -0.333845,-0.080395 -0.106222,-0.3215703 0.151749,-0.1406872 0.212448,-0.3617663 0.182096,-0.5426494 -0.0607,-0.261275 -0.01518,-0.3014738 0.257975,-0.3014738 0.303493,0 0.455242,-0.2713247 1.805795,-3.3965836 0.804262,-1.8590741 1.45678,-3.4267299 1.45678,-3.4669259 0,-0.040196 -1.36573,-0.070342 -3.034957,-0.070342 -2.519011,0 -3.004605,-0.020111 -2.943906,-0.1406873 C 17.058912,1.2842417 16.558147,0.67125009 16.042203,0.46021787 15.450388,0.21904225 14.949619,0.20899256 14.312277,0.42002193 Z"
       id="path10-4"
       style="fill:#ffffff;stroke-width:0.0123488" />
  </g>
</svg>
